%TF.GenerationSoftware,KiCad,Pcbnew,5.1.6*%
%TF.CreationDate,2020-10-03T01:30:16+01:00*%
%TF.ProjectId,PCB-Business-Card,5043422d-4275-4736-996e-6573732d4361,rev?*%
%TF.SameCoordinates,Original*%
%TF.FileFunction,Copper,L1,Top*%
%TF.FilePolarity,Positive*%
%FSLAX46Y46*%
G04 Gerber Fmt 4.6, Leading zero omitted, Abs format (unit mm)*
G04 Created by KiCad (PCBNEW 5.1.6) date 2020-10-03 01:30:16*
%MOMM*%
%LPD*%
G01*
G04 APERTURE LIST*
%TA.AperFunction,EtchedComponent*%
%ADD10C,0.300000*%
%TD*%
%TA.AperFunction,EtchedComponent*%
%ADD11C,0.010000*%
%TD*%
%TA.AperFunction,ComponentPad*%
%ADD12C,0.808000*%
%TD*%
%TA.AperFunction,SMDPad,CuDef*%
%ADD13R,0.450000X0.270000*%
%TD*%
%TA.AperFunction,SMDPad,CuDef*%
%ADD14R,0.370000X0.450000*%
%TD*%
%TA.AperFunction,SMDPad,CuDef*%
%ADD15R,0.270000X0.450000*%
%TD*%
%TA.AperFunction,ViaPad*%
%ADD16C,0.800000*%
%TD*%
%TA.AperFunction,Conductor*%
%ADD17C,0.250000*%
%TD*%
G04 APERTURE END LIST*
D10*
%TO.C,U2*%
X212300000Y-138500000D02*
G75*
G03*
X215000000Y-135800000I0J2700000D01*
G01*
X212300000Y-137900000D02*
G75*
G03*
X214400000Y-135800000I0J2100000D01*
G01*
X212300000Y-137300000D02*
G75*
G03*
X213800000Y-135800000I0J1500000D01*
G01*
X212300000Y-136700000D02*
G75*
G03*
X213200000Y-135800000I0J900000D01*
G01*
X212300000Y-136100000D02*
G75*
G03*
X212600000Y-135800000I0J300000D01*
G01*
X169700000Y-138500000D02*
G75*
G02*
X167000000Y-135800000I0J2700000D01*
G01*
X169700000Y-137900000D02*
G75*
G02*
X167600000Y-135800000I0J2100000D01*
G01*
X169700000Y-137300000D02*
G75*
G02*
X168200000Y-135800000I0J1500000D01*
G01*
X169700000Y-136700000D02*
G75*
G02*
X168800000Y-135800000I0J900000D01*
G01*
X169700000Y-136100000D02*
G75*
G02*
X169400000Y-135800000I0J300000D01*
G01*
X169700000Y-113500000D02*
G75*
G03*
X167000000Y-116200000I0J-2700000D01*
G01*
X169700000Y-114100000D02*
G75*
G03*
X167600000Y-116200000I0J-2100000D01*
G01*
X169700000Y-114700000D02*
G75*
G03*
X168200000Y-116200000I0J-1500000D01*
G01*
X169700000Y-115300000D02*
G75*
G03*
X168800000Y-116200000I0J-900000D01*
G01*
X169700000Y-115900000D02*
G75*
G03*
X169400000Y-116200000I0J-300000D01*
G01*
X212300000Y-113500000D02*
G75*
G02*
X215000000Y-116200000I0J-2700000D01*
G01*
X212300000Y-114100000D02*
G75*
G02*
X214400000Y-116200000I0J-2100000D01*
G01*
X212300000Y-114700000D02*
G75*
G02*
X213800000Y-116200000I0J-1500000D01*
G01*
X212300000Y-115300000D02*
G75*
G02*
X213200000Y-116200000I0J-900000D01*
G01*
X212300000Y-115900000D02*
G75*
G02*
X212600000Y-116200000I0J-300000D01*
G01*
X169700000Y-136100000D02*
X212300000Y-136100000D01*
X169700000Y-136700000D02*
X212300000Y-136700000D01*
X169700000Y-137300000D02*
X212300000Y-137300000D01*
X169700000Y-137900000D02*
X212300000Y-137900000D01*
X169700000Y-138500000D02*
X212300000Y-138500000D01*
X169400000Y-116200000D02*
X169400000Y-135800000D01*
X168800000Y-116200000D02*
X168800000Y-135800000D01*
X168200000Y-116200000D02*
X168200000Y-135800000D01*
X167600000Y-116200000D02*
X167600000Y-135800000D01*
X167000000Y-116200000D02*
X167000000Y-135800000D01*
X212600000Y-116200000D02*
X212600000Y-135800000D01*
X213200000Y-116200000D02*
X213200000Y-135800000D01*
X213800000Y-116200000D02*
X213800000Y-135800000D01*
X214400000Y-116200000D02*
X214400000Y-135800000D01*
X215000000Y-116200000D02*
X215000000Y-135800000D01*
X169700000Y-115900000D02*
X191000000Y-115900000D01*
X212300000Y-115300000D02*
X191600000Y-115300000D01*
X191000000Y-115900000D02*
X191600000Y-115300000D01*
X169700000Y-114700000D02*
X190600000Y-114700000D01*
X190600000Y-114700000D02*
X191200000Y-114100000D01*
X191200000Y-114100000D02*
X212300000Y-114100000D01*
X169700000Y-115300000D02*
X190800000Y-115300000D01*
X190800000Y-115300000D02*
X191400000Y-114700000D01*
X191400000Y-114700000D02*
X212300000Y-114700000D01*
X169700000Y-114100000D02*
X190400000Y-114100000D01*
X190400000Y-114100000D02*
X191000000Y-113500000D01*
X191000000Y-113500000D02*
X212300000Y-113500000D01*
X212300000Y-115900000D02*
X191800000Y-115900000D01*
X190365000Y-112538000D02*
X190365000Y-112665000D01*
X190365000Y-112665000D02*
X190365000Y-113335000D01*
X190365000Y-113335000D02*
X190200000Y-113500000D01*
X190200000Y-113500000D02*
X169700000Y-113500000D01*
X191635000Y-116475000D02*
X191635000Y-116065000D01*
X191635000Y-116065000D02*
X191800000Y-115900000D01*
D11*
%TO.C,Ref\u002A\u002A*%
G36*
X200796500Y-69644000D02*
G01*
X202532166Y-69644000D01*
X202532166Y-71252667D01*
X204267833Y-71252667D01*
X204267833Y-79571167D01*
X202532166Y-79571167D01*
X202532166Y-81306834D01*
X199314833Y-81306834D01*
X199314833Y-79571167D01*
X197579166Y-79571167D01*
X197579166Y-77962500D01*
X195970500Y-77962500D01*
X195970500Y-76226834D01*
X194258593Y-76226834D01*
X194247548Y-76136875D01*
X194243999Y-76094767D01*
X194238926Y-76015957D01*
X194232629Y-75906039D01*
X194225410Y-75770607D01*
X194217568Y-75615253D01*
X194209404Y-75445570D01*
X194203007Y-75306937D01*
X194194962Y-75134326D01*
X194187114Y-74975497D01*
X194179738Y-74835312D01*
X194173108Y-74718635D01*
X194167500Y-74630326D01*
X194163186Y-74575249D01*
X194160714Y-74558159D01*
X194139085Y-74555751D01*
X194080743Y-74551557D01*
X193991255Y-74545878D01*
X193876189Y-74539012D01*
X193741114Y-74531259D01*
X193591599Y-74522919D01*
X193433210Y-74514291D01*
X193271517Y-74505674D01*
X193112088Y-74497368D01*
X192960491Y-74489672D01*
X192822294Y-74482886D01*
X192703065Y-74477309D01*
X192608372Y-74473240D01*
X192543785Y-74470980D01*
X192536208Y-74470798D01*
X192530508Y-74469025D01*
X192525424Y-74462447D01*
X192520919Y-74448785D01*
X192516959Y-74425763D01*
X192513510Y-74391101D01*
X192510535Y-74342521D01*
X192508000Y-74277747D01*
X192505871Y-74194498D01*
X192504112Y-74090499D01*
X192502688Y-73963469D01*
X192501564Y-73811133D01*
X192500706Y-73631210D01*
X192500078Y-73421424D01*
X192499646Y-73179497D01*
X192499374Y-72903149D01*
X192499227Y-72590104D01*
X192499171Y-72238084D01*
X192499166Y-72057000D01*
X192499166Y-69644000D01*
X194234833Y-69644000D01*
X194234833Y-67908334D01*
X200796500Y-67908334D01*
X200796500Y-69644000D01*
G37*
X200796500Y-69644000D02*
X202532166Y-69644000D01*
X202532166Y-71252667D01*
X204267833Y-71252667D01*
X204267833Y-79571167D01*
X202532166Y-79571167D01*
X202532166Y-81306834D01*
X199314833Y-81306834D01*
X199314833Y-79571167D01*
X197579166Y-79571167D01*
X197579166Y-77962500D01*
X195970500Y-77962500D01*
X195970500Y-76226834D01*
X194258593Y-76226834D01*
X194247548Y-76136875D01*
X194243999Y-76094767D01*
X194238926Y-76015957D01*
X194232629Y-75906039D01*
X194225410Y-75770607D01*
X194217568Y-75615253D01*
X194209404Y-75445570D01*
X194203007Y-75306937D01*
X194194962Y-75134326D01*
X194187114Y-74975497D01*
X194179738Y-74835312D01*
X194173108Y-74718635D01*
X194167500Y-74630326D01*
X194163186Y-74575249D01*
X194160714Y-74558159D01*
X194139085Y-74555751D01*
X194080743Y-74551557D01*
X193991255Y-74545878D01*
X193876189Y-74539012D01*
X193741114Y-74531259D01*
X193591599Y-74522919D01*
X193433210Y-74514291D01*
X193271517Y-74505674D01*
X193112088Y-74497368D01*
X192960491Y-74489672D01*
X192822294Y-74482886D01*
X192703065Y-74477309D01*
X192608372Y-74473240D01*
X192543785Y-74470980D01*
X192536208Y-74470798D01*
X192530508Y-74469025D01*
X192525424Y-74462447D01*
X192520919Y-74448785D01*
X192516959Y-74425763D01*
X192513510Y-74391101D01*
X192510535Y-74342521D01*
X192508000Y-74277747D01*
X192505871Y-74194498D01*
X192504112Y-74090499D01*
X192502688Y-73963469D01*
X192501564Y-73811133D01*
X192500706Y-73631210D01*
X192500078Y-73421424D01*
X192499646Y-73179497D01*
X192499374Y-72903149D01*
X192499227Y-72590104D01*
X192499171Y-72238084D01*
X192499166Y-72057000D01*
X192499166Y-69644000D01*
X194234833Y-69644000D01*
X194234833Y-67908334D01*
X200796500Y-67908334D01*
X200796500Y-69644000D01*
G36*
X190637486Y-74792792D02*
G01*
X190639199Y-74849476D01*
X190642983Y-74936981D01*
X190648491Y-75049428D01*
X190655378Y-75180941D01*
X190663300Y-75325642D01*
X190671910Y-75477651D01*
X190680865Y-75631093D01*
X190689818Y-75780088D01*
X190698424Y-75918759D01*
X190706339Y-76041228D01*
X190713217Y-76141617D01*
X190718713Y-76214048D01*
X190722481Y-76252644D01*
X190723496Y-76257385D01*
X190746109Y-76260554D01*
X190806075Y-76265288D01*
X190898454Y-76271295D01*
X191018306Y-76278284D01*
X191160693Y-76285965D01*
X191320673Y-76294045D01*
X191451984Y-76300320D01*
X191627718Y-76308703D01*
X191794582Y-76317012D01*
X191946668Y-76324927D01*
X192078070Y-76332127D01*
X192182882Y-76338292D01*
X192255197Y-76343102D01*
X192282208Y-76345373D01*
X192393333Y-76356880D01*
X192393333Y-81306834D01*
X190890500Y-81306834D01*
X190890500Y-79571167D01*
X189049000Y-79571167D01*
X189049000Y-81306834D01*
X187419166Y-81306834D01*
X187419166Y-76332667D01*
X189154833Y-76332667D01*
X189154833Y-74724000D01*
X190636500Y-74724000D01*
X190637486Y-74792792D01*
G37*
X190637486Y-74792792D02*
X190639199Y-74849476D01*
X190642983Y-74936981D01*
X190648491Y-75049428D01*
X190655378Y-75180941D01*
X190663300Y-75325642D01*
X190671910Y-75477651D01*
X190680865Y-75631093D01*
X190689818Y-75780088D01*
X190698424Y-75918759D01*
X190706339Y-76041228D01*
X190713217Y-76141617D01*
X190718713Y-76214048D01*
X190722481Y-76252644D01*
X190723496Y-76257385D01*
X190746109Y-76260554D01*
X190806075Y-76265288D01*
X190898454Y-76271295D01*
X191018306Y-76278284D01*
X191160693Y-76285965D01*
X191320673Y-76294045D01*
X191451984Y-76300320D01*
X191627718Y-76308703D01*
X191794582Y-76317012D01*
X191946668Y-76324927D01*
X192078070Y-76332127D01*
X192182882Y-76338292D01*
X192255197Y-76343102D01*
X192282208Y-76345373D01*
X192393333Y-76356880D01*
X192393333Y-81306834D01*
X190890500Y-81306834D01*
X190890500Y-79571167D01*
X189049000Y-79571167D01*
X189049000Y-81306834D01*
X187419166Y-81306834D01*
X187419166Y-76332667D01*
X189154833Y-76332667D01*
X189154833Y-74724000D01*
X190636500Y-74724000D01*
X190637486Y-74792792D01*
G36*
X185704666Y-69644000D02*
G01*
X187313333Y-69644000D01*
X187313333Y-74491167D01*
X185704666Y-74491167D01*
X185704666Y-76226834D01*
X183969000Y-76226834D01*
X183969000Y-77962500D01*
X182233333Y-77962500D01*
X182233333Y-79571167D01*
X180624666Y-79571167D01*
X180624666Y-81306834D01*
X177407333Y-81306834D01*
X177407333Y-79571167D01*
X175671666Y-79571167D01*
X175671666Y-71252667D01*
X177407333Y-71252667D01*
X177407333Y-69644000D01*
X178994833Y-69644000D01*
X178994833Y-67908334D01*
X185704666Y-67908334D01*
X185704666Y-69644000D01*
G37*
X185704666Y-69644000D02*
X187313333Y-69644000D01*
X187313333Y-74491167D01*
X185704666Y-74491167D01*
X185704666Y-76226834D01*
X183969000Y-76226834D01*
X183969000Y-77962500D01*
X182233333Y-77962500D01*
X182233333Y-79571167D01*
X180624666Y-79571167D01*
X180624666Y-81306834D01*
X177407333Y-81306834D01*
X177407333Y-79571167D01*
X175671666Y-79571167D01*
X175671666Y-71252667D01*
X177407333Y-71252667D01*
X177407333Y-69644000D01*
X178994833Y-69644000D01*
X178994833Y-67908334D01*
X185704666Y-67908334D01*
X185704666Y-69644000D01*
G36*
X185704666Y-83148334D02*
G01*
X189049000Y-83148334D01*
X189049000Y-84757000D01*
X190890500Y-84757000D01*
X190890500Y-83148334D01*
X194234833Y-83148334D01*
X194234833Y-81412667D01*
X197473333Y-81412667D01*
X197473333Y-83148334D01*
X200796500Y-83148334D01*
X200796500Y-84757000D01*
X202532166Y-84757000D01*
X202532166Y-86492667D01*
X204267833Y-86492667D01*
X204267833Y-88228334D01*
X207739166Y-88228334D01*
X207739166Y-86492667D01*
X209220833Y-86492667D01*
X209220833Y-89710000D01*
X207612166Y-89710000D01*
X207612166Y-91445667D01*
X204267833Y-91445667D01*
X204267833Y-93054334D01*
X195970500Y-93054334D01*
X195970500Y-91445667D01*
X192499166Y-91445667D01*
X192499166Y-89710000D01*
X190890500Y-89710000D01*
X190890500Y-88122500D01*
X189049000Y-88122500D01*
X189049000Y-89710000D01*
X187313333Y-89710000D01*
X187313333Y-91445667D01*
X183969000Y-91445667D01*
X183969000Y-93054334D01*
X175671666Y-93054334D01*
X175671666Y-91445667D01*
X172327333Y-91445667D01*
X172327333Y-89710000D01*
X170591666Y-89710000D01*
X170591666Y-86492667D01*
X172200333Y-86492667D01*
X172200333Y-88228334D01*
X175671666Y-88228334D01*
X175671666Y-86492667D01*
X177407333Y-86492667D01*
X177407333Y-84757000D01*
X178994833Y-84757000D01*
X178994833Y-83148334D01*
X182465691Y-83148334D01*
X182471220Y-82285792D01*
X182476750Y-81423250D01*
X185704666Y-81412402D01*
X185704666Y-83148334D01*
G37*
X185704666Y-83148334D02*
X189049000Y-83148334D01*
X189049000Y-84757000D01*
X190890500Y-84757000D01*
X190890500Y-83148334D01*
X194234833Y-83148334D01*
X194234833Y-81412667D01*
X197473333Y-81412667D01*
X197473333Y-83148334D01*
X200796500Y-83148334D01*
X200796500Y-84757000D01*
X202532166Y-84757000D01*
X202532166Y-86492667D01*
X204267833Y-86492667D01*
X204267833Y-88228334D01*
X207739166Y-88228334D01*
X207739166Y-86492667D01*
X209220833Y-86492667D01*
X209220833Y-89710000D01*
X207612166Y-89710000D01*
X207612166Y-91445667D01*
X204267833Y-91445667D01*
X204267833Y-93054334D01*
X195970500Y-93054334D01*
X195970500Y-91445667D01*
X192499166Y-91445667D01*
X192499166Y-89710000D01*
X190890500Y-89710000D01*
X190890500Y-88122500D01*
X189049000Y-88122500D01*
X189049000Y-89710000D01*
X187313333Y-89710000D01*
X187313333Y-91445667D01*
X183969000Y-91445667D01*
X183969000Y-93054334D01*
X175671666Y-93054334D01*
X175671666Y-91445667D01*
X172327333Y-91445667D01*
X172327333Y-89710000D01*
X170591666Y-89710000D01*
X170591666Y-86492667D01*
X172200333Y-86492667D01*
X172200333Y-88228334D01*
X175671666Y-88228334D01*
X175671666Y-86492667D01*
X177407333Y-86492667D01*
X177407333Y-84757000D01*
X178994833Y-84757000D01*
X178994833Y-83148334D01*
X182465691Y-83148334D01*
X182471220Y-82285792D01*
X182476750Y-81423250D01*
X185704666Y-81412402D01*
X185704666Y-83148334D01*
G36*
X182220606Y-94964625D02*
G01*
X182222489Y-94992919D01*
X182225095Y-95060203D01*
X182228341Y-95163145D01*
X182232144Y-95298408D01*
X182236419Y-95462660D01*
X182241084Y-95652566D01*
X182246055Y-95864790D01*
X182251248Y-96095999D01*
X182256579Y-96342859D01*
X182261964Y-96602034D01*
X182263167Y-96661311D01*
X182268491Y-96921515D01*
X182273689Y-97169215D01*
X182278687Y-97401190D01*
X182283408Y-97614215D01*
X182287778Y-97805067D01*
X182291719Y-97970525D01*
X182295158Y-98107364D01*
X182298018Y-98212363D01*
X182300224Y-98282297D01*
X182301700Y-98313944D01*
X182301949Y-98315499D01*
X182323575Y-98317563D01*
X182382936Y-98321273D01*
X182475476Y-98326394D01*
X182596639Y-98332691D01*
X182741868Y-98339928D01*
X182906608Y-98347871D01*
X183086301Y-98356284D01*
X183138208Y-98358670D01*
X183969000Y-98396714D01*
X183969000Y-99997000D01*
X185704666Y-99997000D01*
X185704666Y-101732667D01*
X194234833Y-101732667D01*
X194234833Y-99997000D01*
X195970500Y-99997000D01*
X195970500Y-98396735D01*
X196737791Y-98358780D01*
X196913311Y-98350014D01*
X197074850Y-98341784D01*
X197217688Y-98334344D01*
X197337106Y-98327946D01*
X197428384Y-98322844D01*
X197486804Y-98319289D01*
X197507644Y-98317538D01*
X197508553Y-98296407D01*
X197510255Y-98236871D01*
X197512663Y-98142850D01*
X197515694Y-98018262D01*
X197519261Y-97867027D01*
X197523279Y-97693064D01*
X197527663Y-97500292D01*
X197532326Y-97292630D01*
X197537185Y-97073998D01*
X197542152Y-96848315D01*
X197547144Y-96619500D01*
X197552073Y-96391472D01*
X197556856Y-96168151D01*
X197561406Y-95953456D01*
X197565638Y-95751306D01*
X197569467Y-95565620D01*
X197572807Y-95400317D01*
X197575573Y-95259318D01*
X197577680Y-95146540D01*
X197579041Y-95065904D01*
X197579572Y-95021328D01*
X197579573Y-95017542D01*
X197579166Y-94917000D01*
X200796500Y-94917000D01*
X200796500Y-101605667D01*
X199209000Y-101605667D01*
X199209000Y-103214334D01*
X197473333Y-103214334D01*
X197473333Y-104950000D01*
X195716500Y-104950000D01*
X195716500Y-106558667D01*
X184074833Y-106558667D01*
X184074833Y-104950509D01*
X183275791Y-104944963D01*
X182476750Y-104939417D01*
X182471220Y-104076875D01*
X182465691Y-103214334D01*
X180730500Y-103214334D01*
X180730500Y-101605667D01*
X178994833Y-101605667D01*
X178994833Y-94917000D01*
X182211360Y-94917000D01*
X182220606Y-94964625D01*
G37*
X182220606Y-94964625D02*
X182222489Y-94992919D01*
X182225095Y-95060203D01*
X182228341Y-95163145D01*
X182232144Y-95298408D01*
X182236419Y-95462660D01*
X182241084Y-95652566D01*
X182246055Y-95864790D01*
X182251248Y-96095999D01*
X182256579Y-96342859D01*
X182261964Y-96602034D01*
X182263167Y-96661311D01*
X182268491Y-96921515D01*
X182273689Y-97169215D01*
X182278687Y-97401190D01*
X182283408Y-97614215D01*
X182287778Y-97805067D01*
X182291719Y-97970525D01*
X182295158Y-98107364D01*
X182298018Y-98212363D01*
X182300224Y-98282297D01*
X182301700Y-98313944D01*
X182301949Y-98315499D01*
X182323575Y-98317563D01*
X182382936Y-98321273D01*
X182475476Y-98326394D01*
X182596639Y-98332691D01*
X182741868Y-98339928D01*
X182906608Y-98347871D01*
X183086301Y-98356284D01*
X183138208Y-98358670D01*
X183969000Y-98396714D01*
X183969000Y-99997000D01*
X185704666Y-99997000D01*
X185704666Y-101732667D01*
X194234833Y-101732667D01*
X194234833Y-99997000D01*
X195970500Y-99997000D01*
X195970500Y-98396735D01*
X196737791Y-98358780D01*
X196913311Y-98350014D01*
X197074850Y-98341784D01*
X197217688Y-98334344D01*
X197337106Y-98327946D01*
X197428384Y-98322844D01*
X197486804Y-98319289D01*
X197507644Y-98317538D01*
X197508553Y-98296407D01*
X197510255Y-98236871D01*
X197512663Y-98142850D01*
X197515694Y-98018262D01*
X197519261Y-97867027D01*
X197523279Y-97693064D01*
X197527663Y-97500292D01*
X197532326Y-97292630D01*
X197537185Y-97073998D01*
X197542152Y-96848315D01*
X197547144Y-96619500D01*
X197552073Y-96391472D01*
X197556856Y-96168151D01*
X197561406Y-95953456D01*
X197565638Y-95751306D01*
X197569467Y-95565620D01*
X197572807Y-95400317D01*
X197575573Y-95259318D01*
X197577680Y-95146540D01*
X197579041Y-95065904D01*
X197579572Y-95021328D01*
X197579573Y-95017542D01*
X197579166Y-94917000D01*
X200796500Y-94917000D01*
X200796500Y-101605667D01*
X199209000Y-101605667D01*
X199209000Y-103214334D01*
X197473333Y-103214334D01*
X197473333Y-104950000D01*
X195716500Y-104950000D01*
X195716500Y-106558667D01*
X184074833Y-106558667D01*
X184074833Y-104950509D01*
X183275791Y-104944963D01*
X182476750Y-104939417D01*
X182471220Y-104076875D01*
X182465691Y-103214334D01*
X180730500Y-103214334D01*
X180730500Y-101605667D01*
X178994833Y-101605667D01*
X178994833Y-94917000D01*
X182211360Y-94917000D01*
X182220606Y-94964625D01*
%TD*%
D12*
%TO.P,U2,1*%
%TO.N,Net-(U1-Pad1)*%
X190370000Y-112550000D03*
%TO.P,U2,2*%
%TO.N,Net-(U1-Pad8)*%
X191635000Y-116475000D03*
%TD*%
D13*
%TO.P,U1,8*%
%TO.N,Net-(U1-Pad8)*%
X185600000Y-111000000D03*
%TO.P,U1,4*%
%TO.N,Net-(U1-Pad4)*%
X184400000Y-111000000D03*
D14*
%TO.P,U1,1*%
%TO.N,Net-(U1-Pad1)*%
X185550000Y-110400000D03*
D15*
%TO.P,U1,7*%
%TO.N,Net-(C1-Pad1)*%
X185500000Y-111600000D03*
%TO.P,U1,3*%
%TO.N,Net-(U1-Pad3)*%
X184500000Y-110400000D03*
%TO.P,U1,5*%
%TO.N,Net-(U1-Pad5)*%
X184500000Y-111600000D03*
%TO.P,U1,2*%
%TO.N,Net-(C1-Pad2)*%
X185000000Y-110400000D03*
%TO.P,U1,6*%
%TO.N,Net-(C1-Pad1)*%
X185000000Y-111600000D03*
%TD*%
%TO.P,R1,2*%
%TO.N,Net-(D1-Pad2)*%
%TA.AperFunction,SMDPad,CuDef*%
G36*
G01*
X177297500Y-110260000D02*
X176822500Y-110260000D01*
G75*
G02*
X176585000Y-110022500I0J237500D01*
G01*
X176585000Y-109447500D01*
G75*
G02*
X176822500Y-109210000I237500J0D01*
G01*
X177297500Y-109210000D01*
G75*
G02*
X177535000Y-109447500I0J-237500D01*
G01*
X177535000Y-110022500D01*
G75*
G02*
X177297500Y-110260000I-237500J0D01*
G01*
G37*
%TD.AperFunction*%
%TO.P,R1,1*%
%TO.N,Net-(C1-Pad1)*%
%TA.AperFunction,SMDPad,CuDef*%
G36*
G01*
X177297500Y-112010000D02*
X176822500Y-112010000D01*
G75*
G02*
X176585000Y-111772500I0J237500D01*
G01*
X176585000Y-111197500D01*
G75*
G02*
X176822500Y-110960000I237500J0D01*
G01*
X177297500Y-110960000D01*
G75*
G02*
X177535000Y-111197500I0J-237500D01*
G01*
X177535000Y-111772500D01*
G75*
G02*
X177297500Y-112010000I-237500J0D01*
G01*
G37*
%TD.AperFunction*%
%TD*%
%TO.P,D1,2*%
%TO.N,Net-(D1-Pad2)*%
%TA.AperFunction,SMDPad,CuDef*%
G36*
G01*
X190450000Y-95450001D02*
X190450000Y-94549999D01*
G75*
G02*
X190699999Y-94300000I249999J0D01*
G01*
X191350001Y-94300000D01*
G75*
G02*
X191600000Y-94549999I0J-249999D01*
G01*
X191600000Y-95450001D01*
G75*
G02*
X191350001Y-95700000I-249999J0D01*
G01*
X190699999Y-95700000D01*
G75*
G02*
X190450000Y-95450001I0J249999D01*
G01*
G37*
%TD.AperFunction*%
%TO.P,D1,1*%
%TO.N,Net-(C1-Pad2)*%
%TA.AperFunction,SMDPad,CuDef*%
G36*
G01*
X188400000Y-95450001D02*
X188400000Y-94549999D01*
G75*
G02*
X188649999Y-94300000I249999J0D01*
G01*
X189300001Y-94300000D01*
G75*
G02*
X189550000Y-94549999I0J-249999D01*
G01*
X189550000Y-95450001D01*
G75*
G02*
X189300001Y-95700000I-249999J0D01*
G01*
X188649999Y-95700000D01*
G75*
G02*
X188400000Y-95450001I0J249999D01*
G01*
G37*
%TD.AperFunction*%
%TD*%
%TO.P,C1,2*%
%TO.N,Net-(C1-Pad2)*%
%TA.AperFunction,SMDPad,CuDef*%
G36*
G01*
X179237500Y-110255000D02*
X178762500Y-110255000D01*
G75*
G02*
X178525000Y-110017500I0J237500D01*
G01*
X178525000Y-109442500D01*
G75*
G02*
X178762500Y-109205000I237500J0D01*
G01*
X179237500Y-109205000D01*
G75*
G02*
X179475000Y-109442500I0J-237500D01*
G01*
X179475000Y-110017500D01*
G75*
G02*
X179237500Y-110255000I-237500J0D01*
G01*
G37*
%TD.AperFunction*%
%TO.P,C1,1*%
%TO.N,Net-(C1-Pad1)*%
%TA.AperFunction,SMDPad,CuDef*%
G36*
G01*
X179237500Y-112005000D02*
X178762500Y-112005000D01*
G75*
G02*
X178525000Y-111767500I0J237500D01*
G01*
X178525000Y-111192500D01*
G75*
G02*
X178762500Y-110955000I237500J0D01*
G01*
X179237500Y-110955000D01*
G75*
G02*
X179475000Y-111192500I0J-237500D01*
G01*
X179475000Y-111767500D01*
G75*
G02*
X179237500Y-112005000I-237500J0D01*
G01*
G37*
%TD.AperFunction*%
%TD*%
D16*
%TO.N,Net-(U1-Pad8)*%
X191600000Y-111000000D03*
%TO.N,Net-(U1-Pad1)*%
X190300000Y-110275000D03*
%TD*%
D17*
%TO.N,Net-(C1-Pad2)*%
X185000000Y-108900000D02*
X185000000Y-110400000D01*
X182300000Y-108700000D02*
X184800000Y-108700000D01*
X182100000Y-108900000D02*
X182300000Y-108700000D01*
X182100000Y-109500000D02*
X182100000Y-108900000D01*
X184800000Y-108700000D02*
X185000000Y-108900000D01*
X181870000Y-109730000D02*
X182100000Y-109500000D01*
X179000000Y-109730000D02*
X181870000Y-109730000D01*
X188975000Y-94175000D02*
X188975000Y-95000000D01*
X188800000Y-94000000D02*
X188975000Y-94175000D01*
X177800000Y-94000000D02*
X188800000Y-94000000D01*
X177600000Y-94200000D02*
X177800000Y-94000000D01*
X177600000Y-107500000D02*
X177600000Y-94200000D01*
X177800000Y-107700000D02*
X177600000Y-107500000D01*
X178800000Y-107700000D02*
X177800000Y-107700000D01*
X179000000Y-107900000D02*
X178800000Y-107700000D01*
X179000000Y-109730000D02*
X179000000Y-107900000D01*
%TO.N,Net-(C1-Pad1)*%
X178995000Y-111485000D02*
X179000000Y-111480000D01*
X177060000Y-111485000D02*
X178995000Y-111485000D01*
X185500000Y-111600000D02*
X185000000Y-111600000D01*
X185000000Y-112400000D02*
X185000000Y-111600000D01*
X184800000Y-112600000D02*
X185000000Y-112400000D01*
X182400000Y-112600000D02*
X184800000Y-112600000D01*
X182200000Y-112400000D02*
X182400000Y-112600000D01*
X182200000Y-111700000D02*
X182200000Y-112400000D01*
X181980000Y-111480000D02*
X182200000Y-111700000D01*
X179000000Y-111480000D02*
X181980000Y-111480000D01*
%TO.N,Net-(D1-Pad2)*%
X191025000Y-93675000D02*
X191025000Y-95000000D01*
X190850000Y-93500000D02*
X191025000Y-93675000D01*
X177250000Y-93500000D02*
X190850000Y-93500000D01*
X177060000Y-93690000D02*
X177250000Y-93500000D01*
X177060000Y-109735000D02*
X177060000Y-93690000D01*
%TO.N,Net-(U1-Pad8)*%
X191600000Y-111000000D02*
X185600000Y-111000000D01*
%TO.N,Net-(U1-Pad1)*%
X185675000Y-110275000D02*
X185550000Y-110400000D01*
X190300000Y-110275000D02*
X185675000Y-110275000D01*
%TD*%
M02*
