%TF.GenerationSoftware,KiCad,Pcbnew,5.1.6*%
%TF.CreationDate,2020-10-03T01:30:16+01:00*%
%TF.ProjectId,PCB-Business-Card,5043422d-4275-4736-996e-6573732d4361,rev?*%
%TF.SameCoordinates,Original*%
%TF.FileFunction,Paste,Top*%
%TF.FilePolarity,Positive*%
%FSLAX46Y46*%
G04 Gerber Fmt 4.6, Leading zero omitted, Abs format (unit mm)*
G04 Created by KiCad (PCBNEW 5.1.6) date 2020-10-03 01:30:16*
%MOMM*%
%LPD*%
G01*
G04 APERTURE LIST*
%ADD10C,0.010000*%
G04 APERTURE END LIST*
D10*
%TO.C,U1*%
G36*
X185710000Y-110800000D02*
G01*
X185710000Y-111200000D01*
X185490000Y-111200000D01*
X185490000Y-110800000D01*
X185710000Y-110800000D01*
G37*
X185710000Y-110800000D02*
X185710000Y-111200000D01*
X185490000Y-111200000D01*
X185490000Y-110800000D01*
X185710000Y-110800000D01*
G36*
X184510000Y-110800000D02*
G01*
X184510000Y-111200000D01*
X184290000Y-111200000D01*
X184290000Y-110800000D01*
X184510000Y-110800000D01*
G37*
X184510000Y-110800000D02*
X184510000Y-111200000D01*
X184290000Y-111200000D01*
X184290000Y-110800000D01*
X184510000Y-110800000D01*
G36*
X185710000Y-110200000D02*
G01*
X185710000Y-110600000D01*
X185390000Y-110600000D01*
X185390000Y-110200000D01*
X185710000Y-110200000D01*
G37*
X185710000Y-110200000D02*
X185710000Y-110600000D01*
X185390000Y-110600000D01*
X185390000Y-110200000D01*
X185710000Y-110200000D01*
G36*
X185610000Y-111400000D02*
G01*
X185610000Y-111800000D01*
X185390000Y-111800000D01*
X185390000Y-111400000D01*
X185610000Y-111400000D01*
G37*
X185610000Y-111400000D02*
X185610000Y-111800000D01*
X185390000Y-111800000D01*
X185390000Y-111400000D01*
X185610000Y-111400000D01*
G36*
X184610000Y-110200000D02*
G01*
X184610000Y-110600000D01*
X184390000Y-110600000D01*
X184390000Y-110200000D01*
X184610000Y-110200000D01*
G37*
X184610000Y-110200000D02*
X184610000Y-110600000D01*
X184390000Y-110600000D01*
X184390000Y-110200000D01*
X184610000Y-110200000D01*
G36*
X184610000Y-111400000D02*
G01*
X184610000Y-111800000D01*
X184390000Y-111800000D01*
X184390000Y-111400000D01*
X184610000Y-111400000D01*
G37*
X184610000Y-111400000D02*
X184610000Y-111800000D01*
X184390000Y-111800000D01*
X184390000Y-111400000D01*
X184610000Y-111400000D01*
G36*
X185110000Y-110200000D02*
G01*
X185110000Y-110600000D01*
X184890000Y-110600000D01*
X184890000Y-110200000D01*
X185110000Y-110200000D01*
G37*
X185110000Y-110200000D02*
X185110000Y-110600000D01*
X184890000Y-110600000D01*
X184890000Y-110200000D01*
X185110000Y-110200000D01*
G36*
X185110000Y-111400000D02*
G01*
X185110000Y-111800000D01*
X184890000Y-111800000D01*
X184890000Y-111400000D01*
X185110000Y-111400000D01*
G37*
X185110000Y-111400000D02*
X185110000Y-111800000D01*
X184890000Y-111800000D01*
X184890000Y-111400000D01*
X185110000Y-111400000D01*
%TD*%
%TO.C,R1*%
G36*
G01*
X177297500Y-110260000D02*
X176822500Y-110260000D01*
G75*
G02*
X176585000Y-110022500I0J237500D01*
G01*
X176585000Y-109447500D01*
G75*
G02*
X176822500Y-109210000I237500J0D01*
G01*
X177297500Y-109210000D01*
G75*
G02*
X177535000Y-109447500I0J-237500D01*
G01*
X177535000Y-110022500D01*
G75*
G02*
X177297500Y-110260000I-237500J0D01*
G01*
G37*
G36*
G01*
X177297500Y-112010000D02*
X176822500Y-112010000D01*
G75*
G02*
X176585000Y-111772500I0J237500D01*
G01*
X176585000Y-111197500D01*
G75*
G02*
X176822500Y-110960000I237500J0D01*
G01*
X177297500Y-110960000D01*
G75*
G02*
X177535000Y-111197500I0J-237500D01*
G01*
X177535000Y-111772500D01*
G75*
G02*
X177297500Y-112010000I-237500J0D01*
G01*
G37*
%TD*%
%TO.C,D1*%
G36*
G01*
X190450000Y-95450001D02*
X190450000Y-94549999D01*
G75*
G02*
X190699999Y-94300000I249999J0D01*
G01*
X191350001Y-94300000D01*
G75*
G02*
X191600000Y-94549999I0J-249999D01*
G01*
X191600000Y-95450001D01*
G75*
G02*
X191350001Y-95700000I-249999J0D01*
G01*
X190699999Y-95700000D01*
G75*
G02*
X190450000Y-95450001I0J249999D01*
G01*
G37*
G36*
G01*
X188400000Y-95450001D02*
X188400000Y-94549999D01*
G75*
G02*
X188649999Y-94300000I249999J0D01*
G01*
X189300001Y-94300000D01*
G75*
G02*
X189550000Y-94549999I0J-249999D01*
G01*
X189550000Y-95450001D01*
G75*
G02*
X189300001Y-95700000I-249999J0D01*
G01*
X188649999Y-95700000D01*
G75*
G02*
X188400000Y-95450001I0J249999D01*
G01*
G37*
%TD*%
%TO.C,C1*%
G36*
G01*
X179237500Y-110255000D02*
X178762500Y-110255000D01*
G75*
G02*
X178525000Y-110017500I0J237500D01*
G01*
X178525000Y-109442500D01*
G75*
G02*
X178762500Y-109205000I237500J0D01*
G01*
X179237500Y-109205000D01*
G75*
G02*
X179475000Y-109442500I0J-237500D01*
G01*
X179475000Y-110017500D01*
G75*
G02*
X179237500Y-110255000I-237500J0D01*
G01*
G37*
G36*
G01*
X179237500Y-112005000D02*
X178762500Y-112005000D01*
G75*
G02*
X178525000Y-111767500I0J237500D01*
G01*
X178525000Y-111192500D01*
G75*
G02*
X178762500Y-110955000I237500J0D01*
G01*
X179237500Y-110955000D01*
G75*
G02*
X179475000Y-111192500I0J-237500D01*
G01*
X179475000Y-111767500D01*
G75*
G02*
X179237500Y-112005000I-237500J0D01*
G01*
G37*
%TD*%
M02*
