%TF.GenerationSoftware,KiCad,Pcbnew,5.1.6*%
%TF.CreationDate,2020-10-03T01:30:16+01:00*%
%TF.ProjectId,PCB-Business-Card,5043422d-4275-4736-996e-6573732d4361,rev?*%
%TF.SameCoordinates,Original*%
%TF.FileFunction,Legend,Top*%
%TF.FilePolarity,Positive*%
%FSLAX46Y46*%
G04 Gerber Fmt 4.6, Leading zero omitted, Abs format (unit mm)*
G04 Created by KiCad (PCBNEW 5.1.6) date 2020-10-03 01:30:16*
%MOMM*%
%LPD*%
G01*
G04 APERTURE LIST*
%ADD10C,0.010000*%
%ADD11C,0.200000*%
%ADD12C,0.127000*%
%ADD13C,0.120000*%
G04 APERTURE END LIST*
D10*
%TO.C,Ref\u002A\u002A*%
G36*
X187549322Y-123450092D02*
G01*
X187667882Y-123524910D01*
X187729488Y-123583829D01*
X187796109Y-123667394D01*
X187872546Y-123780110D01*
X187952896Y-123911822D01*
X188031255Y-124052375D01*
X188101718Y-124191614D01*
X188158382Y-124319383D01*
X188161143Y-124326282D01*
X188267734Y-124651095D01*
X188334522Y-124985917D01*
X188361678Y-125326835D01*
X188349377Y-125669933D01*
X188297791Y-126011297D01*
X188207093Y-126347012D01*
X188077458Y-126673162D01*
X188055201Y-126719917D01*
X187942045Y-126928287D01*
X187825119Y-127096256D01*
X187704861Y-127223389D01*
X187581709Y-127309251D01*
X187456101Y-127353409D01*
X187411470Y-127358942D01*
X187313030Y-127355399D01*
X187232131Y-127327530D01*
X187227450Y-127325027D01*
X187135627Y-127261031D01*
X187044235Y-127173977D01*
X186966952Y-127078292D01*
X186924676Y-127005667D01*
X186889399Y-126886797D01*
X186880309Y-126782866D01*
X186881544Y-126726060D01*
X186888467Y-126676913D01*
X186904563Y-126625615D01*
X186933314Y-126562355D01*
X186978205Y-126477320D01*
X187008091Y-126423033D01*
X187092485Y-126267328D01*
X187157615Y-126136174D01*
X187205938Y-126019875D01*
X187239910Y-125908735D01*
X187261988Y-125793058D01*
X187274627Y-125663149D01*
X187280286Y-125509312D01*
X187281440Y-125344084D01*
X187280223Y-125172829D01*
X187275114Y-125033791D01*
X187263725Y-124916878D01*
X187243667Y-124811999D01*
X187212551Y-124709065D01*
X187167987Y-124597983D01*
X187107587Y-124468664D01*
X187043837Y-124340489D01*
X186983072Y-124218692D01*
X186939355Y-124126941D01*
X186909972Y-124057843D01*
X186892213Y-124004006D01*
X186883363Y-123958037D01*
X186880710Y-123912543D01*
X186880736Y-123895989D01*
X186900630Y-123760718D01*
X186958429Y-123639833D01*
X187056131Y-123529161D01*
X187056302Y-123529007D01*
X187170566Y-123451589D01*
X187294761Y-123412951D01*
X187422981Y-123412613D01*
X187549322Y-123450092D01*
G37*
X187549322Y-123450092D02*
X187667882Y-123524910D01*
X187729488Y-123583829D01*
X187796109Y-123667394D01*
X187872546Y-123780110D01*
X187952896Y-123911822D01*
X188031255Y-124052375D01*
X188101718Y-124191614D01*
X188158382Y-124319383D01*
X188161143Y-124326282D01*
X188267734Y-124651095D01*
X188334522Y-124985917D01*
X188361678Y-125326835D01*
X188349377Y-125669933D01*
X188297791Y-126011297D01*
X188207093Y-126347012D01*
X188077458Y-126673162D01*
X188055201Y-126719917D01*
X187942045Y-126928287D01*
X187825119Y-127096256D01*
X187704861Y-127223389D01*
X187581709Y-127309251D01*
X187456101Y-127353409D01*
X187411470Y-127358942D01*
X187313030Y-127355399D01*
X187232131Y-127327530D01*
X187227450Y-127325027D01*
X187135627Y-127261031D01*
X187044235Y-127173977D01*
X186966952Y-127078292D01*
X186924676Y-127005667D01*
X186889399Y-126886797D01*
X186880309Y-126782866D01*
X186881544Y-126726060D01*
X186888467Y-126676913D01*
X186904563Y-126625615D01*
X186933314Y-126562355D01*
X186978205Y-126477320D01*
X187008091Y-126423033D01*
X187092485Y-126267328D01*
X187157615Y-126136174D01*
X187205938Y-126019875D01*
X187239910Y-125908735D01*
X187261988Y-125793058D01*
X187274627Y-125663149D01*
X187280286Y-125509312D01*
X187281440Y-125344084D01*
X187280223Y-125172829D01*
X187275114Y-125033791D01*
X187263725Y-124916878D01*
X187243667Y-124811999D01*
X187212551Y-124709065D01*
X187167987Y-124597983D01*
X187107587Y-124468664D01*
X187043837Y-124340489D01*
X186983072Y-124218692D01*
X186939355Y-124126941D01*
X186909972Y-124057843D01*
X186892213Y-124004006D01*
X186883363Y-123958037D01*
X186880710Y-123912543D01*
X186880736Y-123895989D01*
X186900630Y-123760718D01*
X186958429Y-123639833D01*
X187056131Y-123529161D01*
X187056302Y-123529007D01*
X187170566Y-123451589D01*
X187294761Y-123412951D01*
X187422981Y-123412613D01*
X187549322Y-123450092D01*
G36*
X189206441Y-122522112D02*
G01*
X189303011Y-122539343D01*
X189389647Y-122577075D01*
X189470888Y-122638991D01*
X189551273Y-122728772D01*
X189635341Y-122850101D01*
X189727632Y-123006660D01*
X189755489Y-123057172D01*
X189953327Y-123455572D01*
X190109415Y-123848768D01*
X190223945Y-124237301D01*
X190287534Y-124556326D01*
X190306331Y-124709389D01*
X190320858Y-124892799D01*
X190330808Y-125094759D01*
X190335877Y-125303469D01*
X190335756Y-125507129D01*
X190330142Y-125693941D01*
X190320640Y-125832617D01*
X190292647Y-126079847D01*
X190255382Y-126310026D01*
X190206499Y-126530509D01*
X190143653Y-126748651D01*
X190064498Y-126971805D01*
X189966689Y-127207326D01*
X189847880Y-127462568D01*
X189718894Y-127719424D01*
X189615194Y-127896251D01*
X189507800Y-128031335D01*
X189395994Y-128125160D01*
X189279055Y-128178213D01*
X189156263Y-128190978D01*
X189049000Y-128171207D01*
X188900855Y-128108201D01*
X188784787Y-128020628D01*
X188702745Y-127910877D01*
X188656680Y-127781341D01*
X188646884Y-127678388D01*
X188651507Y-127609580D01*
X188668347Y-127543600D01*
X188701963Y-127465962D01*
X188732042Y-127407834D01*
X188859146Y-127163955D01*
X188964201Y-126946170D01*
X189050303Y-126746514D01*
X189120549Y-126557026D01*
X189178036Y-126369744D01*
X189225860Y-126176703D01*
X189243813Y-126091982D01*
X189259189Y-126012074D01*
X189270953Y-125938489D01*
X189279563Y-125863743D01*
X189285478Y-125780350D01*
X189289156Y-125680826D01*
X189291056Y-125557685D01*
X189291636Y-125403442D01*
X189291574Y-125312334D01*
X189290948Y-125140062D01*
X189289359Y-125002861D01*
X189286341Y-124893474D01*
X189281426Y-124804640D01*
X189274148Y-124729101D01*
X189264041Y-124659597D01*
X189250638Y-124588871D01*
X189242649Y-124551212D01*
X189183884Y-124312093D01*
X189112614Y-124083823D01*
X189024379Y-123854222D01*
X188914719Y-123611107D01*
X188851611Y-123482954D01*
X188784165Y-123347895D01*
X188733973Y-123243552D01*
X188698415Y-123163262D01*
X188674871Y-123100362D01*
X188660722Y-123048189D01*
X188653347Y-123000081D01*
X188651257Y-122973417D01*
X188649661Y-122894926D01*
X188659631Y-122837781D01*
X188686270Y-122781495D01*
X188707657Y-122746924D01*
X188795628Y-122638387D01*
X188898966Y-122567134D01*
X189024427Y-122529241D01*
X189095396Y-122521699D01*
X189206441Y-122522112D01*
G37*
X189206441Y-122522112D02*
X189303011Y-122539343D01*
X189389647Y-122577075D01*
X189470888Y-122638991D01*
X189551273Y-122728772D01*
X189635341Y-122850101D01*
X189727632Y-123006660D01*
X189755489Y-123057172D01*
X189953327Y-123455572D01*
X190109415Y-123848768D01*
X190223945Y-124237301D01*
X190287534Y-124556326D01*
X190306331Y-124709389D01*
X190320858Y-124892799D01*
X190330808Y-125094759D01*
X190335877Y-125303469D01*
X190335756Y-125507129D01*
X190330142Y-125693941D01*
X190320640Y-125832617D01*
X190292647Y-126079847D01*
X190255382Y-126310026D01*
X190206499Y-126530509D01*
X190143653Y-126748651D01*
X190064498Y-126971805D01*
X189966689Y-127207326D01*
X189847880Y-127462568D01*
X189718894Y-127719424D01*
X189615194Y-127896251D01*
X189507800Y-128031335D01*
X189395994Y-128125160D01*
X189279055Y-128178213D01*
X189156263Y-128190978D01*
X189049000Y-128171207D01*
X188900855Y-128108201D01*
X188784787Y-128020628D01*
X188702745Y-127910877D01*
X188656680Y-127781341D01*
X188646884Y-127678388D01*
X188651507Y-127609580D01*
X188668347Y-127543600D01*
X188701963Y-127465962D01*
X188732042Y-127407834D01*
X188859146Y-127163955D01*
X188964201Y-126946170D01*
X189050303Y-126746514D01*
X189120549Y-126557026D01*
X189178036Y-126369744D01*
X189225860Y-126176703D01*
X189243813Y-126091982D01*
X189259189Y-126012074D01*
X189270953Y-125938489D01*
X189279563Y-125863743D01*
X189285478Y-125780350D01*
X189289156Y-125680826D01*
X189291056Y-125557685D01*
X189291636Y-125403442D01*
X189291574Y-125312334D01*
X189290948Y-125140062D01*
X189289359Y-125002861D01*
X189286341Y-124893474D01*
X189281426Y-124804640D01*
X189274148Y-124729101D01*
X189264041Y-124659597D01*
X189250638Y-124588871D01*
X189242649Y-124551212D01*
X189183884Y-124312093D01*
X189112614Y-124083823D01*
X189024379Y-123854222D01*
X188914719Y-123611107D01*
X188851611Y-123482954D01*
X188784165Y-123347895D01*
X188733973Y-123243552D01*
X188698415Y-123163262D01*
X188674871Y-123100362D01*
X188660722Y-123048189D01*
X188653347Y-123000081D01*
X188651257Y-122973417D01*
X188649661Y-122894926D01*
X188659631Y-122837781D01*
X188686270Y-122781495D01*
X188707657Y-122746924D01*
X188795628Y-122638387D01*
X188898966Y-122567134D01*
X189024427Y-122529241D01*
X189095396Y-122521699D01*
X189206441Y-122522112D01*
G36*
X191159142Y-121582681D02*
G01*
X191248269Y-121605166D01*
X191325576Y-121649409D01*
X191400570Y-121720948D01*
X191482761Y-121825321D01*
X191487612Y-121832031D01*
X191619208Y-122034556D01*
X191749388Y-122272837D01*
X191875691Y-122540309D01*
X191995654Y-122830408D01*
X192106818Y-123136570D01*
X192206721Y-123452228D01*
X192292902Y-123770820D01*
X192362899Y-124085780D01*
X192391661Y-124243417D01*
X192424080Y-124452555D01*
X192447940Y-124647771D01*
X192463952Y-124840272D01*
X192472826Y-125041264D01*
X192475272Y-125261956D01*
X192472041Y-125511673D01*
X192465918Y-125727769D01*
X192456918Y-125913102D01*
X192443810Y-126079207D01*
X192425358Y-126237624D01*
X192400331Y-126399890D01*
X192367492Y-126577542D01*
X192347382Y-126677584D01*
X192295604Y-126904210D01*
X192231303Y-127143573D01*
X192156655Y-127390098D01*
X192073836Y-127638212D01*
X191985023Y-127882340D01*
X191892391Y-128116907D01*
X191798117Y-128336340D01*
X191704376Y-128535063D01*
X191613346Y-128707502D01*
X191527203Y-128848084D01*
X191469446Y-128926423D01*
X191358414Y-129033368D01*
X191233363Y-129102616D01*
X191098436Y-129132722D01*
X190957778Y-129122242D01*
X190928667Y-129114965D01*
X190787607Y-129056237D01*
X190672825Y-128968031D01*
X190600628Y-128874099D01*
X190566802Y-128808716D01*
X190548679Y-128747006D01*
X190541832Y-128670387D01*
X190541250Y-128624917D01*
X190542005Y-128570557D01*
X190546041Y-128524111D01*
X190556010Y-128478101D01*
X190574566Y-128425050D01*
X190604361Y-128357482D01*
X190648049Y-128267919D01*
X190708284Y-128148883D01*
X190714479Y-128136719D01*
X190778595Y-128008093D01*
X190842933Y-127874148D01*
X190901944Y-127746768D01*
X190950081Y-127637838D01*
X190971393Y-127586386D01*
X191143233Y-127100029D01*
X191273060Y-126610853D01*
X191360869Y-126119815D01*
X191406657Y-125627872D01*
X191410419Y-125135981D01*
X191372151Y-124645098D01*
X191291848Y-124156182D01*
X191169506Y-123670189D01*
X191005121Y-123188075D01*
X190991582Y-123153334D01*
X190961330Y-123080602D01*
X190917137Y-122979902D01*
X190863558Y-122861347D01*
X190805148Y-122735046D01*
X190762070Y-122643756D01*
X190676967Y-122460094D01*
X190612662Y-122307885D01*
X190568356Y-122182175D01*
X190543248Y-122078009D01*
X190536539Y-121990431D01*
X190547429Y-121914485D01*
X190575119Y-121845218D01*
X190618808Y-121777672D01*
X190621682Y-121773879D01*
X190723545Y-121673000D01*
X190848056Y-121607837D01*
X190995335Y-121578336D01*
X191048684Y-121576417D01*
X191159142Y-121582681D01*
G37*
X191159142Y-121582681D02*
X191248269Y-121605166D01*
X191325576Y-121649409D01*
X191400570Y-121720948D01*
X191482761Y-121825321D01*
X191487612Y-121832031D01*
X191619208Y-122034556D01*
X191749388Y-122272837D01*
X191875691Y-122540309D01*
X191995654Y-122830408D01*
X192106818Y-123136570D01*
X192206721Y-123452228D01*
X192292902Y-123770820D01*
X192362899Y-124085780D01*
X192391661Y-124243417D01*
X192424080Y-124452555D01*
X192447940Y-124647771D01*
X192463952Y-124840272D01*
X192472826Y-125041264D01*
X192475272Y-125261956D01*
X192472041Y-125511673D01*
X192465918Y-125727769D01*
X192456918Y-125913102D01*
X192443810Y-126079207D01*
X192425358Y-126237624D01*
X192400331Y-126399890D01*
X192367492Y-126577542D01*
X192347382Y-126677584D01*
X192295604Y-126904210D01*
X192231303Y-127143573D01*
X192156655Y-127390098D01*
X192073836Y-127638212D01*
X191985023Y-127882340D01*
X191892391Y-128116907D01*
X191798117Y-128336340D01*
X191704376Y-128535063D01*
X191613346Y-128707502D01*
X191527203Y-128848084D01*
X191469446Y-128926423D01*
X191358414Y-129033368D01*
X191233363Y-129102616D01*
X191098436Y-129132722D01*
X190957778Y-129122242D01*
X190928667Y-129114965D01*
X190787607Y-129056237D01*
X190672825Y-128968031D01*
X190600628Y-128874099D01*
X190566802Y-128808716D01*
X190548679Y-128747006D01*
X190541832Y-128670387D01*
X190541250Y-128624917D01*
X190542005Y-128570557D01*
X190546041Y-128524111D01*
X190556010Y-128478101D01*
X190574566Y-128425050D01*
X190604361Y-128357482D01*
X190648049Y-128267919D01*
X190708284Y-128148883D01*
X190714479Y-128136719D01*
X190778595Y-128008093D01*
X190842933Y-127874148D01*
X190901944Y-127746768D01*
X190950081Y-127637838D01*
X190971393Y-127586386D01*
X191143233Y-127100029D01*
X191273060Y-126610853D01*
X191360869Y-126119815D01*
X191406657Y-125627872D01*
X191410419Y-125135981D01*
X191372151Y-124645098D01*
X191291848Y-124156182D01*
X191169506Y-123670189D01*
X191005121Y-123188075D01*
X190991582Y-123153334D01*
X190961330Y-123080602D01*
X190917137Y-122979902D01*
X190863558Y-122861347D01*
X190805148Y-122735046D01*
X190762070Y-122643756D01*
X190676967Y-122460094D01*
X190612662Y-122307885D01*
X190568356Y-122182175D01*
X190543248Y-122078009D01*
X190536539Y-121990431D01*
X190547429Y-121914485D01*
X190575119Y-121845218D01*
X190618808Y-121777672D01*
X190621682Y-121773879D01*
X190723545Y-121673000D01*
X190848056Y-121607837D01*
X190995335Y-121578336D01*
X191048684Y-121576417D01*
X191159142Y-121582681D01*
G36*
X193080785Y-120614860D02*
G01*
X193203925Y-120683238D01*
X193292585Y-120766062D01*
X193327017Y-120814939D01*
X193375636Y-120896569D01*
X193435475Y-121005005D01*
X193503566Y-121134298D01*
X193576941Y-121278501D01*
X193652633Y-121431665D01*
X193727674Y-121587843D01*
X193799096Y-121741086D01*
X193863930Y-121885446D01*
X193919211Y-122014976D01*
X193934536Y-122052667D01*
X194115918Y-122545174D01*
X194263269Y-123034598D01*
X194377840Y-123527595D01*
X194460882Y-124030824D01*
X194513646Y-124550943D01*
X194537383Y-125094610D01*
X194539045Y-125270000D01*
X194530229Y-125729262D01*
X194501160Y-126170467D01*
X194450489Y-126599098D01*
X194376871Y-127020638D01*
X194278957Y-127440573D01*
X194155399Y-127864385D01*
X194004849Y-128297557D01*
X193825962Y-128745574D01*
X193617387Y-129213919D01*
X193518737Y-129421889D01*
X193436501Y-129588378D01*
X193366263Y-129720425D01*
X193304496Y-129822973D01*
X193247672Y-129900964D01*
X193192264Y-129959340D01*
X193134744Y-130003043D01*
X193083804Y-130031263D01*
X192970742Y-130065906D01*
X192844114Y-130072803D01*
X192722492Y-130051767D01*
X192679083Y-130035344D01*
X192590543Y-129978749D01*
X192506914Y-129897447D01*
X192441401Y-129805848D01*
X192414424Y-129746522D01*
X192399981Y-129670180D01*
X192396235Y-129570420D01*
X192398412Y-129522179D01*
X192403961Y-129464909D01*
X192413727Y-129413180D01*
X192430853Y-129358953D01*
X192458483Y-129294191D01*
X192499757Y-129210852D01*
X192557821Y-129100899D01*
X192577219Y-129064798D01*
X192806120Y-128613145D01*
X193000287Y-128170749D01*
X193161081Y-127731811D01*
X193289860Y-127290533D01*
X193387986Y-126841113D01*
X193456817Y-126377753D01*
X193497715Y-125894654D01*
X193512038Y-125386015D01*
X193509033Y-125091152D01*
X193491090Y-124662884D01*
X193456157Y-124259483D01*
X193402461Y-123873638D01*
X193328232Y-123498040D01*
X193231697Y-123125378D01*
X193111086Y-122748342D01*
X192964626Y-122359622D01*
X192790547Y-121951908D01*
X192700878Y-121756334D01*
X192624093Y-121591753D01*
X192563477Y-121460289D01*
X192517204Y-121356737D01*
X192483447Y-121275897D01*
X192460380Y-121212566D01*
X192446175Y-121161543D01*
X192439004Y-121117624D01*
X192437043Y-121075609D01*
X192438462Y-121030294D01*
X192439461Y-121011971D01*
X192463560Y-120874769D01*
X192520037Y-120763918D01*
X192610826Y-120676353D01*
X192676063Y-120637020D01*
X192810114Y-120590341D01*
X192947268Y-120583424D01*
X193080785Y-120614860D01*
G37*
X193080785Y-120614860D02*
X193203925Y-120683238D01*
X193292585Y-120766062D01*
X193327017Y-120814939D01*
X193375636Y-120896569D01*
X193435475Y-121005005D01*
X193503566Y-121134298D01*
X193576941Y-121278501D01*
X193652633Y-121431665D01*
X193727674Y-121587843D01*
X193799096Y-121741086D01*
X193863930Y-121885446D01*
X193919211Y-122014976D01*
X193934536Y-122052667D01*
X194115918Y-122545174D01*
X194263269Y-123034598D01*
X194377840Y-123527595D01*
X194460882Y-124030824D01*
X194513646Y-124550943D01*
X194537383Y-125094610D01*
X194539045Y-125270000D01*
X194530229Y-125729262D01*
X194501160Y-126170467D01*
X194450489Y-126599098D01*
X194376871Y-127020638D01*
X194278957Y-127440573D01*
X194155399Y-127864385D01*
X194004849Y-128297557D01*
X193825962Y-128745574D01*
X193617387Y-129213919D01*
X193518737Y-129421889D01*
X193436501Y-129588378D01*
X193366263Y-129720425D01*
X193304496Y-129822973D01*
X193247672Y-129900964D01*
X193192264Y-129959340D01*
X193134744Y-130003043D01*
X193083804Y-130031263D01*
X192970742Y-130065906D01*
X192844114Y-130072803D01*
X192722492Y-130051767D01*
X192679083Y-130035344D01*
X192590543Y-129978749D01*
X192506914Y-129897447D01*
X192441401Y-129805848D01*
X192414424Y-129746522D01*
X192399981Y-129670180D01*
X192396235Y-129570420D01*
X192398412Y-129522179D01*
X192403961Y-129464909D01*
X192413727Y-129413180D01*
X192430853Y-129358953D01*
X192458483Y-129294191D01*
X192499757Y-129210852D01*
X192557821Y-129100899D01*
X192577219Y-129064798D01*
X192806120Y-128613145D01*
X193000287Y-128170749D01*
X193161081Y-127731811D01*
X193289860Y-127290533D01*
X193387986Y-126841113D01*
X193456817Y-126377753D01*
X193497715Y-125894654D01*
X193512038Y-125386015D01*
X193509033Y-125091152D01*
X193491090Y-124662884D01*
X193456157Y-124259483D01*
X193402461Y-123873638D01*
X193328232Y-123498040D01*
X193231697Y-123125378D01*
X193111086Y-122748342D01*
X192964626Y-122359622D01*
X192790547Y-121951908D01*
X192700878Y-121756334D01*
X192624093Y-121591753D01*
X192563477Y-121460289D01*
X192517204Y-121356737D01*
X192483447Y-121275897D01*
X192460380Y-121212566D01*
X192446175Y-121161543D01*
X192439004Y-121117624D01*
X192437043Y-121075609D01*
X192438462Y-121030294D01*
X192439461Y-121011971D01*
X192463560Y-120874769D01*
X192520037Y-120763918D01*
X192610826Y-120676353D01*
X192676063Y-120637020D01*
X192810114Y-120590341D01*
X192947268Y-120583424D01*
X193080785Y-120614860D01*
D11*
%TO.C,U1*%
X185620709Y-109750000D02*
G75*
G03*
X185620709Y-109750000I-70709J0D01*
G01*
D12*
X184050000Y-111825000D02*
X184050000Y-111400000D01*
X184050000Y-110175000D02*
X184050000Y-110600000D01*
X185950000Y-111825000D02*
X185950000Y-111400000D01*
X185950000Y-110175000D02*
X185950000Y-110600000D01*
D13*
%TO.C,R1*%
X177570000Y-110781267D02*
X177570000Y-110438733D01*
X176550000Y-110781267D02*
X176550000Y-110438733D01*
%TO.C,D1*%
X188140000Y-95960000D02*
X191000000Y-95960000D01*
X188140000Y-94040000D02*
X188140000Y-95960000D01*
X191000000Y-94040000D02*
X188140000Y-94040000D01*
%TO.C,C1*%
X179510000Y-110776267D02*
X179510000Y-110433733D01*
X178490000Y-110776267D02*
X178490000Y-110433733D01*
%TD*%
M02*
