%TF.GenerationSoftware,KiCad,Pcbnew,5.1.6*%
%TF.CreationDate,2020-10-03T01:30:16+01:00*%
%TF.ProjectId,PCB-Business-Card,5043422d-4275-4736-996e-6573732d4361,rev?*%
%TF.SameCoordinates,Original*%
%TF.FileFunction,Soldermask,Top*%
%TF.FilePolarity,Negative*%
%FSLAX46Y46*%
G04 Gerber Fmt 4.6, Leading zero omitted, Abs format (unit mm)*
G04 Created by KiCad (PCBNEW 5.1.6) date 2020-10-03 01:30:16*
%MOMM*%
%LPD*%
G01*
G04 APERTURE LIST*
%ADD10C,0.010000*%
%ADD11C,0.908000*%
%ADD12R,0.550000X0.370000*%
%ADD13R,0.470000X0.550000*%
%ADD14R,0.370000X0.550000*%
G04 APERTURE END LIST*
D10*
%TO.C,Ref\u002A\u002A*%
G36*
X200796500Y-69644000D02*
G01*
X202532166Y-69644000D01*
X202532166Y-71252667D01*
X204267833Y-71252667D01*
X204267833Y-79571167D01*
X202532166Y-79571167D01*
X202532166Y-81306834D01*
X199314833Y-81306834D01*
X199314833Y-79571167D01*
X197579166Y-79571167D01*
X197579166Y-77962500D01*
X195970500Y-77962500D01*
X195970500Y-76226834D01*
X194258593Y-76226834D01*
X194247548Y-76136875D01*
X194243999Y-76094767D01*
X194238926Y-76015957D01*
X194232629Y-75906039D01*
X194225410Y-75770607D01*
X194217568Y-75615253D01*
X194209404Y-75445570D01*
X194203007Y-75306937D01*
X194194962Y-75134326D01*
X194187114Y-74975497D01*
X194179738Y-74835312D01*
X194173108Y-74718635D01*
X194167500Y-74630326D01*
X194163186Y-74575249D01*
X194160714Y-74558159D01*
X194139085Y-74555751D01*
X194080743Y-74551557D01*
X193991255Y-74545878D01*
X193876189Y-74539012D01*
X193741114Y-74531259D01*
X193591599Y-74522919D01*
X193433210Y-74514291D01*
X193271517Y-74505674D01*
X193112088Y-74497368D01*
X192960491Y-74489672D01*
X192822294Y-74482886D01*
X192703065Y-74477309D01*
X192608372Y-74473240D01*
X192543785Y-74470980D01*
X192536208Y-74470798D01*
X192530508Y-74469025D01*
X192525424Y-74462447D01*
X192520919Y-74448785D01*
X192516959Y-74425763D01*
X192513510Y-74391101D01*
X192510535Y-74342521D01*
X192508000Y-74277747D01*
X192505871Y-74194498D01*
X192504112Y-74090499D01*
X192502688Y-73963469D01*
X192501564Y-73811133D01*
X192500706Y-73631210D01*
X192500078Y-73421424D01*
X192499646Y-73179497D01*
X192499374Y-72903149D01*
X192499227Y-72590104D01*
X192499171Y-72238084D01*
X192499166Y-72057000D01*
X192499166Y-69644000D01*
X194234833Y-69644000D01*
X194234833Y-67908334D01*
X200796500Y-67908334D01*
X200796500Y-69644000D01*
G37*
X200796500Y-69644000D02*
X202532166Y-69644000D01*
X202532166Y-71252667D01*
X204267833Y-71252667D01*
X204267833Y-79571167D01*
X202532166Y-79571167D01*
X202532166Y-81306834D01*
X199314833Y-81306834D01*
X199314833Y-79571167D01*
X197579166Y-79571167D01*
X197579166Y-77962500D01*
X195970500Y-77962500D01*
X195970500Y-76226834D01*
X194258593Y-76226834D01*
X194247548Y-76136875D01*
X194243999Y-76094767D01*
X194238926Y-76015957D01*
X194232629Y-75906039D01*
X194225410Y-75770607D01*
X194217568Y-75615253D01*
X194209404Y-75445570D01*
X194203007Y-75306937D01*
X194194962Y-75134326D01*
X194187114Y-74975497D01*
X194179738Y-74835312D01*
X194173108Y-74718635D01*
X194167500Y-74630326D01*
X194163186Y-74575249D01*
X194160714Y-74558159D01*
X194139085Y-74555751D01*
X194080743Y-74551557D01*
X193991255Y-74545878D01*
X193876189Y-74539012D01*
X193741114Y-74531259D01*
X193591599Y-74522919D01*
X193433210Y-74514291D01*
X193271517Y-74505674D01*
X193112088Y-74497368D01*
X192960491Y-74489672D01*
X192822294Y-74482886D01*
X192703065Y-74477309D01*
X192608372Y-74473240D01*
X192543785Y-74470980D01*
X192536208Y-74470798D01*
X192530508Y-74469025D01*
X192525424Y-74462447D01*
X192520919Y-74448785D01*
X192516959Y-74425763D01*
X192513510Y-74391101D01*
X192510535Y-74342521D01*
X192508000Y-74277747D01*
X192505871Y-74194498D01*
X192504112Y-74090499D01*
X192502688Y-73963469D01*
X192501564Y-73811133D01*
X192500706Y-73631210D01*
X192500078Y-73421424D01*
X192499646Y-73179497D01*
X192499374Y-72903149D01*
X192499227Y-72590104D01*
X192499171Y-72238084D01*
X192499166Y-72057000D01*
X192499166Y-69644000D01*
X194234833Y-69644000D01*
X194234833Y-67908334D01*
X200796500Y-67908334D01*
X200796500Y-69644000D01*
G36*
X190637486Y-74792792D02*
G01*
X190639199Y-74849476D01*
X190642983Y-74936981D01*
X190648491Y-75049428D01*
X190655378Y-75180941D01*
X190663300Y-75325642D01*
X190671910Y-75477651D01*
X190680865Y-75631093D01*
X190689818Y-75780088D01*
X190698424Y-75918759D01*
X190706339Y-76041228D01*
X190713217Y-76141617D01*
X190718713Y-76214048D01*
X190722481Y-76252644D01*
X190723496Y-76257385D01*
X190746109Y-76260554D01*
X190806075Y-76265288D01*
X190898454Y-76271295D01*
X191018306Y-76278284D01*
X191160693Y-76285965D01*
X191320673Y-76294045D01*
X191451984Y-76300320D01*
X191627718Y-76308703D01*
X191794582Y-76317012D01*
X191946668Y-76324927D01*
X192078070Y-76332127D01*
X192182882Y-76338292D01*
X192255197Y-76343102D01*
X192282208Y-76345373D01*
X192393333Y-76356880D01*
X192393333Y-81306834D01*
X190890500Y-81306834D01*
X190890500Y-79571167D01*
X189049000Y-79571167D01*
X189049000Y-81306834D01*
X187419166Y-81306834D01*
X187419166Y-76332667D01*
X189154833Y-76332667D01*
X189154833Y-74724000D01*
X190636500Y-74724000D01*
X190637486Y-74792792D01*
G37*
X190637486Y-74792792D02*
X190639199Y-74849476D01*
X190642983Y-74936981D01*
X190648491Y-75049428D01*
X190655378Y-75180941D01*
X190663300Y-75325642D01*
X190671910Y-75477651D01*
X190680865Y-75631093D01*
X190689818Y-75780088D01*
X190698424Y-75918759D01*
X190706339Y-76041228D01*
X190713217Y-76141617D01*
X190718713Y-76214048D01*
X190722481Y-76252644D01*
X190723496Y-76257385D01*
X190746109Y-76260554D01*
X190806075Y-76265288D01*
X190898454Y-76271295D01*
X191018306Y-76278284D01*
X191160693Y-76285965D01*
X191320673Y-76294045D01*
X191451984Y-76300320D01*
X191627718Y-76308703D01*
X191794582Y-76317012D01*
X191946668Y-76324927D01*
X192078070Y-76332127D01*
X192182882Y-76338292D01*
X192255197Y-76343102D01*
X192282208Y-76345373D01*
X192393333Y-76356880D01*
X192393333Y-81306834D01*
X190890500Y-81306834D01*
X190890500Y-79571167D01*
X189049000Y-79571167D01*
X189049000Y-81306834D01*
X187419166Y-81306834D01*
X187419166Y-76332667D01*
X189154833Y-76332667D01*
X189154833Y-74724000D01*
X190636500Y-74724000D01*
X190637486Y-74792792D01*
G36*
X185704666Y-69644000D02*
G01*
X187313333Y-69644000D01*
X187313333Y-74491167D01*
X185704666Y-74491167D01*
X185704666Y-76226834D01*
X183969000Y-76226834D01*
X183969000Y-77962500D01*
X182233333Y-77962500D01*
X182233333Y-79571167D01*
X180624666Y-79571167D01*
X180624666Y-81306834D01*
X177407333Y-81306834D01*
X177407333Y-79571167D01*
X175671666Y-79571167D01*
X175671666Y-71252667D01*
X177407333Y-71252667D01*
X177407333Y-69644000D01*
X178994833Y-69644000D01*
X178994833Y-67908334D01*
X185704666Y-67908334D01*
X185704666Y-69644000D01*
G37*
X185704666Y-69644000D02*
X187313333Y-69644000D01*
X187313333Y-74491167D01*
X185704666Y-74491167D01*
X185704666Y-76226834D01*
X183969000Y-76226834D01*
X183969000Y-77962500D01*
X182233333Y-77962500D01*
X182233333Y-79571167D01*
X180624666Y-79571167D01*
X180624666Y-81306834D01*
X177407333Y-81306834D01*
X177407333Y-79571167D01*
X175671666Y-79571167D01*
X175671666Y-71252667D01*
X177407333Y-71252667D01*
X177407333Y-69644000D01*
X178994833Y-69644000D01*
X178994833Y-67908334D01*
X185704666Y-67908334D01*
X185704666Y-69644000D01*
G36*
X185704666Y-83148334D02*
G01*
X189049000Y-83148334D01*
X189049000Y-84757000D01*
X190890500Y-84757000D01*
X190890500Y-83148334D01*
X194234833Y-83148334D01*
X194234833Y-81412667D01*
X197473333Y-81412667D01*
X197473333Y-83148334D01*
X200796500Y-83148334D01*
X200796500Y-84757000D01*
X202532166Y-84757000D01*
X202532166Y-86492667D01*
X204267833Y-86492667D01*
X204267833Y-88228334D01*
X207739166Y-88228334D01*
X207739166Y-86492667D01*
X209220833Y-86492667D01*
X209220833Y-89710000D01*
X207612166Y-89710000D01*
X207612166Y-91445667D01*
X204267833Y-91445667D01*
X204267833Y-93054334D01*
X195970500Y-93054334D01*
X195970500Y-91445667D01*
X192499166Y-91445667D01*
X192499166Y-89710000D01*
X190890500Y-89710000D01*
X190890500Y-88122500D01*
X189049000Y-88122500D01*
X189049000Y-89710000D01*
X187313333Y-89710000D01*
X187313333Y-91445667D01*
X183969000Y-91445667D01*
X183969000Y-93054334D01*
X175671666Y-93054334D01*
X175671666Y-91445667D01*
X172327333Y-91445667D01*
X172327333Y-89710000D01*
X170591666Y-89710000D01*
X170591666Y-86492667D01*
X172200333Y-86492667D01*
X172200333Y-88228334D01*
X175671666Y-88228334D01*
X175671666Y-86492667D01*
X177407333Y-86492667D01*
X177407333Y-84757000D01*
X178994833Y-84757000D01*
X178994833Y-83148334D01*
X182465691Y-83148334D01*
X182471220Y-82285792D01*
X182476750Y-81423250D01*
X185704666Y-81412402D01*
X185704666Y-83148334D01*
G37*
X185704666Y-83148334D02*
X189049000Y-83148334D01*
X189049000Y-84757000D01*
X190890500Y-84757000D01*
X190890500Y-83148334D01*
X194234833Y-83148334D01*
X194234833Y-81412667D01*
X197473333Y-81412667D01*
X197473333Y-83148334D01*
X200796500Y-83148334D01*
X200796500Y-84757000D01*
X202532166Y-84757000D01*
X202532166Y-86492667D01*
X204267833Y-86492667D01*
X204267833Y-88228334D01*
X207739166Y-88228334D01*
X207739166Y-86492667D01*
X209220833Y-86492667D01*
X209220833Y-89710000D01*
X207612166Y-89710000D01*
X207612166Y-91445667D01*
X204267833Y-91445667D01*
X204267833Y-93054334D01*
X195970500Y-93054334D01*
X195970500Y-91445667D01*
X192499166Y-91445667D01*
X192499166Y-89710000D01*
X190890500Y-89710000D01*
X190890500Y-88122500D01*
X189049000Y-88122500D01*
X189049000Y-89710000D01*
X187313333Y-89710000D01*
X187313333Y-91445667D01*
X183969000Y-91445667D01*
X183969000Y-93054334D01*
X175671666Y-93054334D01*
X175671666Y-91445667D01*
X172327333Y-91445667D01*
X172327333Y-89710000D01*
X170591666Y-89710000D01*
X170591666Y-86492667D01*
X172200333Y-86492667D01*
X172200333Y-88228334D01*
X175671666Y-88228334D01*
X175671666Y-86492667D01*
X177407333Y-86492667D01*
X177407333Y-84757000D01*
X178994833Y-84757000D01*
X178994833Y-83148334D01*
X182465691Y-83148334D01*
X182471220Y-82285792D01*
X182476750Y-81423250D01*
X185704666Y-81412402D01*
X185704666Y-83148334D01*
G36*
X182220606Y-94964625D02*
G01*
X182222489Y-94992919D01*
X182225095Y-95060203D01*
X182228341Y-95163145D01*
X182232144Y-95298408D01*
X182236419Y-95462660D01*
X182241084Y-95652566D01*
X182246055Y-95864790D01*
X182251248Y-96095999D01*
X182256579Y-96342859D01*
X182261964Y-96602034D01*
X182263167Y-96661311D01*
X182268491Y-96921515D01*
X182273689Y-97169215D01*
X182278687Y-97401190D01*
X182283408Y-97614215D01*
X182287778Y-97805067D01*
X182291719Y-97970525D01*
X182295158Y-98107364D01*
X182298018Y-98212363D01*
X182300224Y-98282297D01*
X182301700Y-98313944D01*
X182301949Y-98315499D01*
X182323575Y-98317563D01*
X182382936Y-98321273D01*
X182475476Y-98326394D01*
X182596639Y-98332691D01*
X182741868Y-98339928D01*
X182906608Y-98347871D01*
X183086301Y-98356284D01*
X183138208Y-98358670D01*
X183969000Y-98396714D01*
X183969000Y-99997000D01*
X185704666Y-99997000D01*
X185704666Y-101732667D01*
X194234833Y-101732667D01*
X194234833Y-99997000D01*
X195970500Y-99997000D01*
X195970500Y-98396735D01*
X196737791Y-98358780D01*
X196913311Y-98350014D01*
X197074850Y-98341784D01*
X197217688Y-98334344D01*
X197337106Y-98327946D01*
X197428384Y-98322844D01*
X197486804Y-98319289D01*
X197507644Y-98317538D01*
X197508553Y-98296407D01*
X197510255Y-98236871D01*
X197512663Y-98142850D01*
X197515694Y-98018262D01*
X197519261Y-97867027D01*
X197523279Y-97693064D01*
X197527663Y-97500292D01*
X197532326Y-97292630D01*
X197537185Y-97073998D01*
X197542152Y-96848315D01*
X197547144Y-96619500D01*
X197552073Y-96391472D01*
X197556856Y-96168151D01*
X197561406Y-95953456D01*
X197565638Y-95751306D01*
X197569467Y-95565620D01*
X197572807Y-95400317D01*
X197575573Y-95259318D01*
X197577680Y-95146540D01*
X197579041Y-95065904D01*
X197579572Y-95021328D01*
X197579573Y-95017542D01*
X197579166Y-94917000D01*
X200796500Y-94917000D01*
X200796500Y-101605667D01*
X199209000Y-101605667D01*
X199209000Y-103214334D01*
X197473333Y-103214334D01*
X197473333Y-104950000D01*
X195716500Y-104950000D01*
X195716500Y-106558667D01*
X184074833Y-106558667D01*
X184074833Y-104950509D01*
X183275791Y-104944963D01*
X182476750Y-104939417D01*
X182471220Y-104076875D01*
X182465691Y-103214334D01*
X180730500Y-103214334D01*
X180730500Y-101605667D01*
X178994833Y-101605667D01*
X178994833Y-94917000D01*
X182211360Y-94917000D01*
X182220606Y-94964625D01*
G37*
X182220606Y-94964625D02*
X182222489Y-94992919D01*
X182225095Y-95060203D01*
X182228341Y-95163145D01*
X182232144Y-95298408D01*
X182236419Y-95462660D01*
X182241084Y-95652566D01*
X182246055Y-95864790D01*
X182251248Y-96095999D01*
X182256579Y-96342859D01*
X182261964Y-96602034D01*
X182263167Y-96661311D01*
X182268491Y-96921515D01*
X182273689Y-97169215D01*
X182278687Y-97401190D01*
X182283408Y-97614215D01*
X182287778Y-97805067D01*
X182291719Y-97970525D01*
X182295158Y-98107364D01*
X182298018Y-98212363D01*
X182300224Y-98282297D01*
X182301700Y-98313944D01*
X182301949Y-98315499D01*
X182323575Y-98317563D01*
X182382936Y-98321273D01*
X182475476Y-98326394D01*
X182596639Y-98332691D01*
X182741868Y-98339928D01*
X182906608Y-98347871D01*
X183086301Y-98356284D01*
X183138208Y-98358670D01*
X183969000Y-98396714D01*
X183969000Y-99997000D01*
X185704666Y-99997000D01*
X185704666Y-101732667D01*
X194234833Y-101732667D01*
X194234833Y-99997000D01*
X195970500Y-99997000D01*
X195970500Y-98396735D01*
X196737791Y-98358780D01*
X196913311Y-98350014D01*
X197074850Y-98341784D01*
X197217688Y-98334344D01*
X197337106Y-98327946D01*
X197428384Y-98322844D01*
X197486804Y-98319289D01*
X197507644Y-98317538D01*
X197508553Y-98296407D01*
X197510255Y-98236871D01*
X197512663Y-98142850D01*
X197515694Y-98018262D01*
X197519261Y-97867027D01*
X197523279Y-97693064D01*
X197527663Y-97500292D01*
X197532326Y-97292630D01*
X197537185Y-97073998D01*
X197542152Y-96848315D01*
X197547144Y-96619500D01*
X197552073Y-96391472D01*
X197556856Y-96168151D01*
X197561406Y-95953456D01*
X197565638Y-95751306D01*
X197569467Y-95565620D01*
X197572807Y-95400317D01*
X197575573Y-95259318D01*
X197577680Y-95146540D01*
X197579041Y-95065904D01*
X197579572Y-95021328D01*
X197579573Y-95017542D01*
X197579166Y-94917000D01*
X200796500Y-94917000D01*
X200796500Y-101605667D01*
X199209000Y-101605667D01*
X199209000Y-103214334D01*
X197473333Y-103214334D01*
X197473333Y-104950000D01*
X195716500Y-104950000D01*
X195716500Y-106558667D01*
X184074833Y-106558667D01*
X184074833Y-104950509D01*
X183275791Y-104944963D01*
X182476750Y-104939417D01*
X182471220Y-104076875D01*
X182465691Y-103214334D01*
X180730500Y-103214334D01*
X180730500Y-101605667D01*
X178994833Y-101605667D01*
X178994833Y-94917000D01*
X182211360Y-94917000D01*
X182220606Y-94964625D01*
%TD*%
D11*
%TO.C,U2*%
X190370000Y-112550000D03*
X191635000Y-116475000D03*
%TD*%
D12*
%TO.C,U1*%
X185600000Y-111000000D03*
X184400000Y-111000000D03*
D13*
X185550000Y-110400000D03*
D14*
X185500000Y-111600000D03*
X184500000Y-110400000D03*
X184500000Y-111600000D03*
X185000000Y-110400000D03*
X185000000Y-111600000D03*
%TD*%
%TO.C,R1*%
G36*
G01*
X177322500Y-110310000D02*
X176797500Y-110310000D01*
G75*
G02*
X176535000Y-110047500I0J262500D01*
G01*
X176535000Y-109422500D01*
G75*
G02*
X176797500Y-109160000I262500J0D01*
G01*
X177322500Y-109160000D01*
G75*
G02*
X177585000Y-109422500I0J-262500D01*
G01*
X177585000Y-110047500D01*
G75*
G02*
X177322500Y-110310000I-262500J0D01*
G01*
G37*
G36*
G01*
X177322500Y-112060000D02*
X176797500Y-112060000D01*
G75*
G02*
X176535000Y-111797500I0J262500D01*
G01*
X176535000Y-111172500D01*
G75*
G02*
X176797500Y-110910000I262500J0D01*
G01*
X177322500Y-110910000D01*
G75*
G02*
X177585000Y-111172500I0J-262500D01*
G01*
X177585000Y-111797500D01*
G75*
G02*
X177322500Y-112060000I-262500J0D01*
G01*
G37*
%TD*%
%TO.C,D1*%
G36*
G01*
X190400000Y-95478262D02*
X190400000Y-94521738D01*
G75*
G02*
X190671738Y-94250000I271738J0D01*
G01*
X191378262Y-94250000D01*
G75*
G02*
X191650000Y-94521738I0J-271738D01*
G01*
X191650000Y-95478262D01*
G75*
G02*
X191378262Y-95750000I-271738J0D01*
G01*
X190671738Y-95750000D01*
G75*
G02*
X190400000Y-95478262I0J271738D01*
G01*
G37*
G36*
G01*
X188350000Y-95478262D02*
X188350000Y-94521738D01*
G75*
G02*
X188621738Y-94250000I271738J0D01*
G01*
X189328262Y-94250000D01*
G75*
G02*
X189600000Y-94521738I0J-271738D01*
G01*
X189600000Y-95478262D01*
G75*
G02*
X189328262Y-95750000I-271738J0D01*
G01*
X188621738Y-95750000D01*
G75*
G02*
X188350000Y-95478262I0J271738D01*
G01*
G37*
%TD*%
%TO.C,C1*%
G36*
G01*
X179262500Y-110305000D02*
X178737500Y-110305000D01*
G75*
G02*
X178475000Y-110042500I0J262500D01*
G01*
X178475000Y-109417500D01*
G75*
G02*
X178737500Y-109155000I262500J0D01*
G01*
X179262500Y-109155000D01*
G75*
G02*
X179525000Y-109417500I0J-262500D01*
G01*
X179525000Y-110042500D01*
G75*
G02*
X179262500Y-110305000I-262500J0D01*
G01*
G37*
G36*
G01*
X179262500Y-112055000D02*
X178737500Y-112055000D01*
G75*
G02*
X178475000Y-111792500I0J262500D01*
G01*
X178475000Y-111167500D01*
G75*
G02*
X178737500Y-110905000I262500J0D01*
G01*
X179262500Y-110905000D01*
G75*
G02*
X179525000Y-111167500I0J-262500D01*
G01*
X179525000Y-111792500D01*
G75*
G02*
X179262500Y-112055000I-262500J0D01*
G01*
G37*
%TD*%
M02*
