%TF.GenerationSoftware,KiCad,Pcbnew,5.1.6*%
%TF.CreationDate,2020-10-03T01:30:16+01:00*%
%TF.ProjectId,PCB-Business-Card,5043422d-4275-4736-996e-6573732d4361,rev?*%
%TF.SameCoordinates,Original*%
%TF.FileFunction,Profile,NP*%
%FSLAX46Y46*%
G04 Gerber Fmt 4.6, Leading zero omitted, Abs format (unit mm)*
G04 Created by KiCad (PCBNEW 5.1.6) date 2020-10-03 01:30:16*
%MOMM*%
%LPD*%
G01*
G04 APERTURE LIST*
%TA.AperFunction,Profile*%
%ADD10C,0.100000*%
%TD*%
G04 APERTURE END LIST*
D10*
%TO.C,Ref\u002A\u002A*%
X168625300Y-56100000D02*
X168625300Y-56100000D01*
X168625300Y-56100000D02*
X168625300Y-56100000D01*
X168120330Y-56125336D02*
X168625300Y-56100000D01*
X167630260Y-56199718D02*
X168120330Y-56125336D01*
X167157530Y-56320708D02*
X167630260Y-56199718D01*
X166704590Y-56485867D02*
X167157530Y-56320708D01*
X166273870Y-56692756D02*
X166704590Y-56485867D01*
X165867810Y-56938937D02*
X166273870Y-56692756D01*
X165488840Y-57221970D02*
X165867810Y-56938937D01*
X165139420Y-57539420D02*
X165488840Y-57221970D01*
X164821970Y-57888840D02*
X165139420Y-57539420D01*
X164538937Y-58267810D02*
X164821970Y-57888840D01*
X164292756Y-58673870D02*
X164538937Y-58267810D01*
X164085867Y-59104590D02*
X164292756Y-58673870D01*
X163920708Y-59557530D02*
X164085867Y-59104590D01*
X163799718Y-60030260D02*
X163920708Y-59557530D01*
X163725336Y-60520330D02*
X163799718Y-60030260D01*
X163700000Y-61025300D02*
X163725336Y-60520330D01*
X163700000Y-136174700D02*
X163700000Y-61025300D01*
X163725336Y-136679700D02*
X163700000Y-136174700D01*
X163799718Y-137169700D02*
X163725336Y-136679700D01*
X163920708Y-137642500D02*
X163799718Y-137169700D01*
X164085867Y-138095400D02*
X163920708Y-137642500D01*
X164292756Y-138526100D02*
X164085867Y-138095400D01*
X164538937Y-138932200D02*
X164292756Y-138526100D01*
X164821970Y-139311200D02*
X164538937Y-138932200D01*
X165139420Y-139660600D02*
X164821970Y-139311200D01*
X165488840Y-139978000D02*
X165139420Y-139660600D01*
X165867810Y-140261100D02*
X165488840Y-139978000D01*
X166273870Y-140507200D02*
X165867810Y-140261100D01*
X166704590Y-140714100D02*
X166273870Y-140507200D01*
X167157530Y-140879300D02*
X166704590Y-140714100D01*
X167630260Y-141000300D02*
X167157530Y-140879300D01*
X168120330Y-141074700D02*
X167630260Y-141000300D01*
X168625300Y-141100000D02*
X168120330Y-141074700D01*
X212774700Y-141100000D02*
X168625300Y-141100000D01*
X213279700Y-141074700D02*
X212774700Y-141100000D01*
X213769700Y-141000300D02*
X213279700Y-141074700D01*
X214242500Y-140879300D02*
X213769700Y-141000300D01*
X214695400Y-140714100D02*
X214242500Y-140879300D01*
X215126100Y-140507200D02*
X214695400Y-140714100D01*
X215532200Y-140261100D02*
X215126100Y-140507200D01*
X215911200Y-139978000D02*
X215532200Y-140261100D01*
X216260600Y-139660600D02*
X215911200Y-139978000D01*
X216578000Y-139311200D02*
X216260600Y-139660600D01*
X216861100Y-138932200D02*
X216578000Y-139311200D01*
X217107200Y-138526100D02*
X216861100Y-138932200D01*
X217314100Y-138095400D02*
X217107200Y-138526100D01*
X217479300Y-137642500D02*
X217314100Y-138095400D01*
X217600300Y-137169700D02*
X217479300Y-137642500D01*
X217674700Y-136679700D02*
X217600300Y-137169700D01*
X217700000Y-136174700D02*
X217674700Y-136679700D01*
X217700000Y-61025300D02*
X217700000Y-136174700D01*
X217674700Y-60520330D02*
X217700000Y-61025300D01*
X217600300Y-60030260D02*
X217674700Y-60520330D01*
X217479300Y-59557530D02*
X217600300Y-60030260D01*
X217314100Y-59104590D02*
X217479300Y-59557530D01*
X217107200Y-58673870D02*
X217314100Y-59104590D01*
X216861100Y-58267810D02*
X217107200Y-58673870D01*
X216578000Y-57888840D02*
X216861100Y-58267810D01*
X216260600Y-57539420D02*
X216578000Y-57888840D01*
X215911200Y-57221970D02*
X216260600Y-57539420D01*
X215532200Y-56938937D02*
X215911200Y-57221970D01*
X215126100Y-56692756D02*
X215532200Y-56938937D01*
X214695400Y-56485867D02*
X215126100Y-56692756D01*
X214242500Y-56320708D02*
X214695400Y-56485867D01*
X213769700Y-56199718D02*
X214242500Y-56320708D01*
X213279700Y-56125336D02*
X213769700Y-56199718D01*
X212774700Y-56100000D02*
X213279700Y-56125336D01*
X168625300Y-56100000D02*
X212774700Y-56100000D01*
%TD*%
M02*
