<?xml version="1.0" encoding="UTF-8" standalone="no"?>
<svg
   xmlns:dc="http://purl.org/dc/elements/1.1/"
   xmlns:cc="http://creativecommons.org/ns#"
   xmlns:rdf="http://www.w3.org/1999/02/22-rdf-syntax-ns#"
   xmlns:svg="http://www.w3.org/2000/svg"
   xmlns="http://www.w3.org/2000/svg"
   xmlns:sodipodi="http://sodipodi.sourceforge.net/DTD/sodipodi-0.dtd"
   xmlns:inkscape="http://www.inkscape.org/namespaces/inkscape"
   inkscape:version="1.0.1 (3bc2e813f5, 2020-09-07)"
   sodipodi:docname="pcb-artwork.svg"
   id="svg8"
   version="1.1"
   viewBox="0 0 54.0 85.0"
   height="85.0mm"
   width="54.0mm">
  <defs
     id="defs2">
    <inkscape:perspective
       sodipodi:type="inkscape:persp3d"
       inkscape:vp_x="0 : 42.5 : 1"
       inkscape:vp_y="0 : 1000 : 0"
       inkscape:vp_z="54 : 42.5 : 1"
       inkscape:persp3d-origin="27 : 28.333333 : 1"
       id="perspective18157" />
  </defs>
  <sodipodi:namedview
     id="base"
     pagecolor="#ffffff"
     bordercolor="#666666"
     borderopacity="1.0"
     inkscape:pageopacity="0.0"
     inkscape:pageshadow="2"
     inkscape:zoom="1.5443685"
     inkscape:cx="111.39217"
     inkscape:cy="354.13341"
     inkscape:document-units="mm"
     inkscape:current-layer="g333"
     inkscape:document-rotation="0"
     showgrid="false"
     inkscape:window-width="1860"
     inkscape:window-height="1000"
     inkscape:window-x="30"
     inkscape:window-y="50"
     inkscape:window-maximized="0"
     borderlayer="true" />
  <metadata
     id="metadata5">
    <rdf:RDF>
      <cc:Work
         rdf:about="">
        <dc:format>image/svg+xml</dc:format>
        <dc:type
           rdf:resource="http://purl.org/dc/dcmitype/StillImage" />
        <dc:title />
      </cc:Work>
    </rdf:RDF>
  </metadata>
  <g
     inkscape:label="[fixed] BG"
     inkscape:groupmode="layer"
     sodipodi:insensitive="true"
     id="g12953"
     style="display:inline">
    <rect
       x="0"
       y="0"
       width="54"
       height="85"
       style="fill:#ffffff;fill-opacity:1;stroke:none"
       id="rect12951" />
  </g>
  <g
     inkscape:label="B.Cu"
     inkscape:groupmode="layer"
     id="g12955"
     style="display:none">
    <path
       style="fill:#000000;fill-opacity:1;stroke:none;stroke-width:1.45187;stroke-opacity:1"
       d="M 0,170.07812 V 177.75 l 9.3144531,8.11719 h 8.8046879 z"
       transform="scale(0.26458333)"
       id="path18468" />
    <path
       style="fill:#000000;fill-opacity:1;stroke:none;stroke-width:1.45187;stroke-opacity:1"
       d="m 0,151.18164 v 7.67188 l 31.001953,27.01367 h 8.804688 z"
       transform="scale(0.26458333)"
       id="path18466" />
    <path
       style="fill:#000000;fill-opacity:1;stroke:none;stroke-width:1.45187;stroke-opacity:1"
       d="m 0,132.2832 v 7.67188 l 52.689453,45.91211 h 8.804688 z"
       transform="scale(0.26458333)"
       id="path18464" />
    <path
       style="fill:#000000;fill-opacity:1;stroke:none;stroke-width:1.45187;stroke-opacity:1"
       d="m 0,113.38672 v 7.66992 l 74.376953,64.81055 h 8.802735 z"
       transform="scale(0.26458333)"
       id="path18462" />
    <path
       style="fill:#000000;fill-opacity:1;stroke:none;stroke-width:1.45187;stroke-opacity:1"
       d="m 0,94.488281 v 7.671879 l 96.064453,83.70703 h 8.802737 z"
       transform="scale(0.26458333)"
       id="path18460" />
    <path
       style="fill:#000000;fill-opacity:1;stroke:none;stroke-width:1.45187;stroke-opacity:1"
       d="m 0,75.589844 v 7.671875 L 117.75,185.86719 h 8.80469 z"
       transform="scale(0.26458333)"
       id="path18458" />
    <path
       style="fill:#000000;fill-opacity:1;stroke:none;stroke-width:1.45187;stroke-opacity:1"
       d="m 0,56.693359 v 7.671875 L 139.4375,185.86719 h 8.80469 z"
       transform="scale(0.26458333)"
       id="path18456" />
    <path
       style="fill:#000000;fill-opacity:1;stroke:none;stroke-width:1.45187;stroke-opacity:1"
       d="m 0,37.794922 v 7.671875 L 161.125,185.86719 h 8.80469 z"
       transform="scale(0.26458333)"
       id="path18454" />
    <path
       style="fill:#000000;fill-opacity:1;stroke:none;stroke-width:1.45187;stroke-opacity:1"
       d="m 0,18.898438 v 7.669921 L 182.8125,185.86719 h 8.80469 z"
       transform="scale(0.26458333)"
       id="path18452" />
    <path
       style="fill:#000000;fill-opacity:1;stroke:none;stroke-width:1.45187;stroke-opacity:1"
       d="M 205.06055,16.277344 V 8.6054688 L 195.18555,0 h -8.80469 z"
       transform="scale(0.26458333)"
       id="path18531" />
    <path
       style="fill:#000000;fill-opacity:1;stroke:none;stroke-width:1.45187;stroke-opacity:1"
       d="M 205.06055,35.175781 V 27.503906 L 173.49805,0 h -8.80469 z"
       transform="scale(0.26458333)"
       id="path18529" />
    <path
       style="fill:#000000;fill-opacity:1;stroke:none;stroke-width:1.45187;stroke-opacity:1"
       d="M 205.06055,54.072266 V 46.400391 L 151.81055,0 h -8.80469 z"
       transform="scale(0.26458333)"
       id="path18527" />
    <path
       style="fill:#000000;fill-opacity:1;stroke:none;stroke-width:1.45187;stroke-opacity:1"
       d="M 205.06055,72.970703 V 65.298828 L 130.12305,0 h -8.80469 z"
       transform="scale(0.26458333)"
       id="path18525" />
    <path
       style="fill:#000000;fill-opacity:1;stroke:none;stroke-width:1.45187;stroke-opacity:1"
       d="M 205.06055,91.867188 V 84.197266 L 108.43555,0 h -8.802738 z"
       transform="scale(0.26458333)"
       id="path18523" />
    <path
       style="fill:#000000;fill-opacity:1;stroke:none;stroke-width:1.45187;stroke-opacity:1"
       d="m 205.06055,110.76562 v -7.67187 L 86.748047,0 h -8.802735 z"
       transform="scale(0.26458333)"
       id="path18521" />
    <path
       style="fill:#000000;fill-opacity:1;stroke:none;stroke-width:1.45187;stroke-opacity:1"
       d="m 205.06055,129.66406 v -7.67187 L 65.0625,0 h -8.804688 z"
       transform="scale(0.26458333)"
       id="path18519" />
    <path
       style="fill:#000000;fill-opacity:1;stroke:none;stroke-width:1.45187;stroke-opacity:1"
       d="m 205.06055,148.56055 v -7.67188 L 43.375,0 h -8.804688 z"
       transform="scale(0.26458333)"
       id="path18517" />
    <path
       style="fill:#000000;fill-opacity:1;stroke:none;stroke-width:1.45187;stroke-opacity:1"
       d="m 205.06055,167.45898 v -7.67187 L 21.6875,0 h -8.804688 z"
       transform="scale(0.26458333)"
       id="path18515" />
    <path
       style="fill:#000000;fill-opacity:1;stroke:none;stroke-width:1.45187;stroke-opacity:1"
       d="m 205.06055,185.86719 v -7.18164 L 0,0 V 7.671875 L 204.5,185.86719 Z"
       transform="scale(0.26458333)"
       id="path18513" />
  </g>
  <g
     inkscape:label="B.Mask"
     inkscape:groupmode="layer"
     id="g12957"
     style="display:none" />
  <g
     inkscape:label="B.SilkS"
     inkscape:groupmode="layer"
     id="g12959"
     style="display:none">
    <text
       xml:space="preserve"
       style="font-size:3.52777px;line-height:1.25;font-family:'Roboto Mono';-inkscape-font-specification:'Roboto Mono';letter-spacing:0px;stroke-width:0.264583"
       x="6.0724607"
       y="15.096891"
       id="text86"
       transform="matrix(0,1,1,0,0,0)"><tspan
         sodipodi:role="line"
         id="tspan84"
         x="6.0724607"
         y="15.096891"
         style="stroke-width:0.264583">Hamza Ahmed</tspan><tspan
         sodipodi:role="line"
         x="6.0724607"
         y="19.506603"
         style="stroke-width:0.264583"
         id="tspan106" /><tspan
         sodipodi:role="line"
         x="6.0724607"
         y="23.916317"
         style="stroke-width:0.264583"
         id="tspan94">AHMZA</tspan><tspan
         sodipodi:role="line"
         x="6.0724607"
         y="28.326029"
         style="stroke-width:0.264583"
         id="tspan108" /><tspan
         sodipodi:role="line"
         x="6.0724607"
         y="32.735741"
         style="stroke-width:0.264583"
         id="tspan92">h.4hmz4@gmail.com</tspan><tspan
         sodipodi:role="line"
         x="6.0724607"
         y="37.145454"
         style="stroke-width:0.264583"
         id="tspan110" /><tspan
         sodipodi:role="line"
         x="6.0724607"
         y="41.555168"
         style="stroke-width:0.264583"
         id="tspan104">ahmza.com</tspan></text>
    <path
       id="path17259-7-3"
       style="display:inline;fill:#000000;stroke-width:0.572821"
       transform="scale(0.26458333)"
       d="m 98.896484,238.50977 v 3.15039 3.15039 h 3.722656 3.72461 v 7.44531 7.44726 h -3.72461 -3.722656 v 3.72266 3.72461 h -3.722656 -3.724609 v 3.72266 3.72265 h -3.435547 -3.4375 v 7.16211 7.16016 h -3.722656 -3.72461 v 6.87305 6.87304 h 3.72461 3.722656 v 7.16016 7.16211 h 3.4375 3.435547 v 4.00976 0.26368 h 14.322261 v -0.26368 -4.00976 h 3.43555 3.4375 v -3.4375 -3.4375 h 3.72266 3.72461 v -7.44727 -7.44531 h 3.43554 3.4375 v -17.75781 -17.75782 h -3.4375 -3.43554 v -7.16015 -7.16016 h -3.72461 -3.72266 v -3.4375 -3.43554 h -6.87305 z m 65.302736,82.75 h 20.62109 v -24.89649 h -3.4375 -3.4375 v -3.72266 -3.72265 H 174.22266 170.5 v -3.72461 -3.72266 h -3.4375 -3.4375 v -3.4375 -3.4375 h -14.32031 -14.32031 v 6.85742 6.85743 l 7.30273,0.16015 7.30469,0.16016 0.17187,3.29297 0.17188,3.29492 h 3.4082 3.4082 v 3.72266 3.72265 h 3.72266 3.72461 v 18.33203 z m -115.710939,0 h 20.621094 v -0.26368 -4.00976 h 3.724609 3.722657 v -3.15235 -3.15039 H 65.986328 55.417969 l -0.171875,3.58008 -0.169922,3.58008 -3.294922,0.17187 -3.292969,0.17188 z M 33.595703,259.70312 v 3.72266 3.72461 h -3.4375 -3.4375 v 3.72266 3.72265 h -3.722656 -3.722656 v 14.03516 14.0332 h 3.722656 3.722656 v 3.72461 3.72266 h 10.283203 10.283203 l 0.171875,-3.58008 0.169922,-3.58008 3.580078,-0.16992 3.580078,-0.17187 v -3.69532 -3.69531 h 3.72461 3.722656 v -3.4375 -3.4375 h 3.4375 3.435547 v -3.72266 -3.72265 h 3.724609 3.722657 v -6.875 -6.87305 h -3.722657 -3.724609 v -3.72461 -3.72266 H 51.351562 Z" />
  </g>
  <g
     inkscape:label="F.Cu"
     inkscape:groupmode="layer"
     id="g12961"
     style="display:none">
    <path
       id="path17259"
       style="fill:#000000;stroke-width:0.133635"
       d="m 20.379301,49.645322 v -0.801809 h -0.801809 -0.801808 v -0.868627 -0.868624 h -0.868626 -0.868626 v -0.80181 -0.801809 H 16.169806 15.30118 v -3.34087 -3.340867 h 1.599624 1.599625 l 0.0374,1.703843 0.0374,1.703842 0.835218,0.03979 0.835217,0.03978 v 0.795433 0.795432 h 0.868626 0.868626 v 0.868625 0.868627 h 4.276312 4.276311 v -0.868627 -0.868625 h 0.868627 0.868627 v -0.795141 -0.795139 l 0.768398,-0.04008 0.768401,-0.04008 0.0374,-1.703843 0.0374,-1.703842 h 1.599626 1.599623 v 3.340867 3.34087 h -0.801809 -0.801807 v 0.801809 0.801809 h -0.868622 -0.868624 v 0.868625 0.868627 h -0.868628 -0.868627 v 0.801809 0.801807 H 26.192413 20.379301 Z M 11.960311,36.14821 V 35.346403 H 10.289876 8.6194415 V 34.477776 33.609149 H 7.7508153 6.8821892 v -1.603616 -1.603618 h 0.8018087 0.8018086 v 0.868627 0.868624 h 1.7372525 1.737252 v -0.868624 -0.868627 h 0.868626 0.868625 v -0.868626 -0.868626 h 0.801809 0.801809 v -0.801808 -0.801809 h 1.737252 1.737252 V 26.19242 25.323795 h 1.603617 1.603617 v 0.868625 0.868626 h 1.670434 1.670435 v 0.801809 0.801808 h 0.935443 0.935444 v -0.801808 -0.801809 h 1.670434 1.670433 V 26.19242 25.323795 h 1.603619 1.603619 v 0.868625 0.868626 h 1.670434 1.670433 v 0.801809 0.801808 h 0.868627 0.868625 v 0.868626 0.868626 h 0.868627 0.868627 v 0.868627 0.868624 h 1.737249 1.737254 v -0.868624 -0.868627 h 0.734991 0.734992 v 1.603618 1.603616 h -0.801812 -0.801807 v 0.868627 0.868627 h -1.670433 -1.670434 v 0.801807 0.801809 H 36.415473 32.272795 V 36.14821 35.346403 H 30.535541 28.79829 V 34.477776 33.609149 H 27.996483 27.194674 V 32.807342 32.005533 H 26.25923 25.323787 v 0.801809 0.801807 h -0.868626 -0.868626 v 0.868627 0.868627 H 21.9161 20.245666 v 0.801807 0.801809 H 16.102988 11.960311 Z M 23.72017,22.717917 v -2.472243 h 0.868625 0.868627 v -0.801809 -0.801809 h 0.728322 0.728321 l 0.04008,0.7684 0.04008,0.7684 0.835219,0.03979 0.835218,0.03979 v 2.465866 2.465867 H 27.92967 27.194679 v -0.868626 -0.868626 h -0.935444 -0.935443 v 0.868626 0.868626 H 24.521978 23.72017 Z m 11.893494,1.603617 v -0.868626 h -0.868625 -0.868627 v -0.801809 -0.801808 h -0.80181 -0.801807 v -0.868626 -0.868626 h -0.86225 -0.862248 l -0.03979,-0.835218 -0.03979,-0.835217 -0.835218,-0.03979 -0.835218,-0.03979 v -2.399048 -2.399049 h 0.868627 0.868624 v -0.868626 -0.868626 h 3.274052 3.274052 v 0.868626 0.868626 h 0.868627 0.868624 v 0.801808 0.801809 h 0.868627 0.868627 v 4.142677 4.142678 h -0.868627 -0.868627 v 0.868626 0.868626 h -1.603616 -1.603618 z m -21.916102,0 V 23.452908 H 12.828937 11.960311 V 19.31023 15.167553 h 0.868626 0.868625 v -0.801809 -0.801808 h 0.801809 0.801809 v -0.868625 -0.868627 h 3.340869 3.340869 v 0.868627 0.868625 h 0.801808 0.801809 v 2.405425 2.405426 h -0.801809 -0.801808 v 0.868626 0.868626 h -0.868626 -0.868626 v 0.868626 0.868626 H 19.37704 18.508414 v 0.801808 0.801809 h -0.801809 -0.801808 v 0.868626 0.868626 H 15.30118 13.697562 Z" />
  </g>
  <g
     inkscape:label="F.Mask"
     inkscape:groupmode="layer"
     id="g12963"
     style="display:none">
    <path
       id="path17259-7"
       style="fill:#000000;stroke-width:0.133635"
       d="m 20.379301,49.645322 v -0.801809 h -0.801809 -0.801808 v -0.868627 -0.868624 h -0.868626 -0.868626 v -0.80181 -0.801809 H 16.169806 15.30118 v -3.34087 -3.340867 h 1.599624 1.599625 l 0.0374,1.703843 0.0374,1.703842 0.835218,0.03979 0.835217,0.03978 v 0.795433 0.795432 h 0.868626 0.868626 v 0.868625 0.868627 h 4.276312 4.276311 v -0.868627 -0.868625 h 0.868627 0.868627 v -0.795141 -0.795139 l 0.768398,-0.04008 0.768401,-0.04008 0.0374,-1.703843 0.0374,-1.703842 h 1.599626 1.599623 v 3.340867 3.34087 h -0.801809 -0.801807 v 0.801809 0.801809 h -0.868622 -0.868624 v 0.868625 0.868627 h -0.868628 -0.868627 v 0.801809 0.801807 H 26.192413 20.379301 Z M 11.960311,36.14821 V 35.346403 H 10.289876 8.619441 V 34.477776 33.609149 H 7.750815 6.882189 v -1.603616 -1.603618 h 0.801809 0.801808 v 0.868627 0.868624 h 1.737253 1.737252 v -0.868624 -0.868627 h 0.868626 0.868625 v -0.868626 -0.868626 h 0.801809 0.801809 v -0.801808 -0.801809 h 1.737252 1.737252 V 26.19242 25.323795 h 1.603617 1.603617 v 0.868625 0.868626 h 1.670434 1.670435 v 0.801809 0.801808 h 0.935443 0.935444 v -0.801808 -0.801809 h 1.670434 1.670433 V 26.19242 25.323795 h 1.603619 1.603619 v 0.868625 0.868626 h 1.670434 1.670433 v 0.801809 0.801808 h 0.868627 0.868625 v 0.868626 0.868626 h 0.868627 0.868627 v 0.868627 0.868624 h 1.737249 1.737254 v -0.868624 -0.868627 h 0.734991 0.734992 v 1.603618 1.603616 h -0.801812 -0.801807 v 0.868627 0.868627 h -1.670433 -1.670434 v 0.801807 0.801809 H 36.415473 32.272795 V 36.14821 35.346403 H 30.535541 28.79829 V 34.477776 33.609149 H 27.996483 27.194674 V 32.807342 32.005533 H 26.25923 25.323787 v 0.801809 0.801807 h -0.868626 -0.868626 v 0.868627 0.868627 H 21.9161 20.245666 v 0.801807 0.801809 H 16.102988 11.960311 Z M 23.72017,22.717917 v -2.472243 h 0.868625 0.868627 v -0.801809 -0.801809 h 0.728322 0.728321 l 0.04008,0.7684 0.04008,0.7684 0.835219,0.03979 0.835218,0.03979 v 2.465866 2.465867 H 27.92967 27.194679 v -0.868626 -0.868626 h -0.935444 -0.935443 v 0.868626 0.868626 H 24.521978 23.72017 Z m 11.893494,1.603617 v -0.868626 h -0.868625 -0.868627 v -0.801809 -0.801808 h -0.80181 -0.801807 v -0.868626 -0.868626 h -0.86225 -0.862248 l -0.03979,-0.835218 -0.03979,-0.835217 -0.835218,-0.03979 -0.835218,-0.03979 v -2.399048 -2.399049 h 0.868627 0.868624 v -0.868626 -0.868626 h 3.274052 3.274052 v 0.868626 0.868626 h 0.868627 0.868624 v 0.801808 0.801809 h 0.868627 0.868627 v 4.142677 4.142678 h -0.868627 -0.868627 v 0.868626 0.868626 h -1.603616 -1.603618 z m -21.916102,0 V 23.452908 H 12.828937 11.960311 V 19.31023 15.167553 h 0.868626 0.868625 v -0.801809 -0.801808 h 0.801809 0.801809 V 12.69531 11.826684 h 3.340869 3.340869 v 0.868626 0.868626 h 0.801808 0.801809 v 2.405425 2.405426 h -0.801809 -0.801808 v 0.868626 0.868626 h -0.868626 -0.868626 v 0.868626 0.868626 H 19.37704 18.508414 v 0.801808 0.801809 h -0.801809 -0.801808 v 0.868626 0.868626 H 15.30118 13.697562 Z" />
  </g>
  <g
     inkscape:label="F.SilkS"
     inkscape:groupmode="layer"
     id="g12965"
     style="display:none">
    <path
       d="m 23.171592,70.685504 c 0,-0.123131 0.04187,-0.205627 0.168072,-0.410638 0.210551,-0.369389 0.252415,-0.574399 0.252415,-1.026285 0,-0.45127 -0.04187,-0.656281 -0.252415,-1.025669 -0.04186,-0.08188 -0.168072,-0.287508 -0.168072,-0.410638 0,-0.246259 0.209937,-0.492517 0.462351,-0.492517 0.210552,0 0.378624,0.0825 0.547313,0.410636 0.294279,0.451271 0.462351,0.985037 0.462351,1.559437 0,0.574398 -0.168072,1.149415 -0.462351,1.600685 -0.168688,0.246258 -0.336761,0.369388 -0.547313,0.369388 -0.252414,-0.08188 -0.462351,-0.328141 -0.462351,-0.574399 z m 1.76691,0.902539 c 0,-0.123128 0.04186,-0.205009 0.209936,-0.492519 0.336759,-0.615647 0.462967,-1.231296 0.462967,-1.887575 0,-0.615649 -0.126208,-1.231296 -0.462967,-1.846945 -0.168072,-0.287508 -0.209936,-0.410636 -0.209936,-0.533766 0,-0.12313 0.168072,-0.410022 0.462351,-0.410022 0.294897,0 0.421104,0.123129 0.67352,0.615648 0.378622,0.697529 0.546694,1.354425 0.546694,2.175085 0,0.861906 -0.126208,1.477555 -0.588559,2.339462 -0.126208,0.286892 -0.294896,0.533151 -0.589176,0.533151 -0.294894,-0.04125 -0.504829,-0.246259 -0.50483,-0.492519 z m 1.893118,0.943789 c 0,-0.205012 0.126206,-0.369389 0.252415,-0.615648 0.420487,-0.861907 0.631039,-1.764447 0.631039,-2.667603 0,-0.943789 -0.210552,-1.846944 -0.672903,-2.749483 -0.168689,-0.328141 -0.210551,-0.492519 -0.210551,-0.615649 0,-0.163762 0.210551,-0.410021 0.50483,-0.410021 0.33676,0 0.420488,0.246259 0.631039,0.5744 0.420488,0.820659 0.799727,1.928825 0.799727,3.201369 0,0.943788 -0.210551,1.928826 -0.715383,3.036376 -0.21055,0.492519 -0.421102,0.738777 -0.673518,0.738777 -0.336143,0 -0.546694,-0.246258 -0.546695,-0.492518 z m 1.851253,0.944404 c 0,-0.164378 0.08434,-0.328757 0.21055,-0.533766 0.63104,-1.149416 0.92532,-2.298215 0.92532,-3.734521 0,-1.354426 -0.252415,-2.421343 -0.883456,-3.693889 -0.08434,-0.205011 -0.21055,-0.41002 -0.21055,-0.574399 0,-0.246259 0.21055,-0.45127 0.462968,-0.45127 0.29428,0 0.420487,0.163762 0.631039,0.615649 0.715383,1.354425 1.009663,2.667601 1.009663,4.103909 0,1.477555 -0.378623,2.83198 -1.051528,4.145156 -0.126207,0.286893 -0.252416,0.61565 -0.631039,0.61565 -0.210551,0 -0.462967,-0.205627 -0.462967,-0.492519 z"
       id="path4"
       inkscape:export-filename="C:\Users\suitedoalex\sites\nfc-payments-logo-6.png"
       inkscape:export-xdpi="2.1216087"
       inkscape:export-ydpi="2.1216087"
       inkscape:connector-curvature="0"
       style="fill:currentColor;fill-rule:evenodd;stroke-width:0.615651" />
  </g>
  <g
     inkscape:label="Edge.Cuts"
     inkscape:groupmode="layer"
     id="g333">
    <path
       id="rect337"
       style="fill:#000000;stroke-width:0.264583"
       d="M 4.9253 0 L 49.0747 0 L 49.5797 0.025336 L 50.0697 0.0997181 L 50.5425 0.220708 L 50.9954 0.385867 L 51.4261 0.592756 L 51.8322 0.838937 L 52.2112 1.12197 L 52.5606 1.43942 L 52.878 1.78884 L 53.1611 2.16781 L 53.4072 2.57387 L 53.6141 3.00459 L 53.7793 3.45753 L 53.9003 3.93026 L 53.9747 4.42033 L 54 4.9253 L 54 80.0747 L 53.9747 80.5797 L 53.9003 81.0697 L 53.7793 81.5425 L 53.6141 81.9954 L 53.4072 82.4261 L 53.1611 82.8322 L 52.878 83.2112 L 52.5606 83.5606 L 52.2112 83.878 L 51.8322 84.1611 L 51.4261 84.4072 L 50.9954 84.6141 L 50.5425 84.7793 L 50.0697 84.9003 L 49.5797 84.9747 L 49.0747 85 L 4.9253 85 L 4.42033 84.9747 L 3.93026 84.9003 L 3.45753 84.7793 L 3.00459 84.6141 L 2.57387 84.4072 L 2.16781 84.1611 L 1.78884 83.878 L 1.43942 83.5606 L 1.12197 83.2112 L 0.838937 82.8322 L 0.592756 82.4261 L 0.385867 81.9954 L 0.220708 81.5425 L 0.0997181 81.0697 L 0.025336 80.5797 L 0 80.0747 L 0 4.9253 L 0.025336 4.42033 L 0.0997181 3.93026 L 0.220708 3.45753 L 0.385867 3.00459 L 0.592756 2.57387 L 0.838937 2.16781 L 1.12197 1.78884 L 1.43942 1.43942 L 1.78884 1.12197 L 2.16781 0.838937 L 2.57387 0.592756 L 3.00459 0.385867 L 3.45753 0.220708 L 3.93026 0.0997181 L 4.42033 0.025336 L 4.9253 0 L 4.9253 0" />
  </g>
</svg>
